<svg width="36" height="36" viewBox="0 0 36 36" fill="none" xmlns="http://www.w3.org/2000/svg">
<path d="M3.59961 11.6H14.7996C15.749 11.6 16.677 11.3185 17.4663 10.7911C18.2557 10.2636 18.8709 9.51397 19.2342 8.63688C19.5975 7.7598 19.6926 6.79468 19.5074 5.86357C19.3222 4.93246 18.865 4.07718 18.1937 3.40589C17.5224 2.7346 16.6672 2.27744 15.736 2.09223C14.8049 1.90702 13.8398 2.00208 12.9627 2.36538C12.0856 2.72868 11.336 3.34391 10.8086 4.13326C10.2811 4.92262 9.99961 5.85065 9.99961 6.8" stroke="white" stroke-width="3" stroke-linecap="round" stroke-linejoin="round"/>
<path d="M5.2002 24.3999H22.8002C23.7495 24.3999 24.6776 24.6814 25.4669 25.2088C26.2563 25.7363 26.8715 26.4859 27.2348 27.363C27.5981 28.2401 27.6932 29.2052 27.508 30.1363C27.3228 31.0674 26.8656 31.9227 26.1943 32.594C25.523 33.2653 24.6677 33.7225 23.7366 33.9077C22.8055 34.0929 21.8404 33.9978 20.9633 33.6345C20.0862 33.2712 19.3366 32.656 18.8091 31.8666C18.2817 31.0773 18.0002 30.1493 18.0002 29.1999" stroke="white" stroke-width="3" stroke-linecap="round" stroke-linejoin="round"/>
<path d="M2 17.9999H29.2C30.1493 17.9999 31.0774 17.7184 31.8667 17.191C32.6561 16.6635 33.2713 15.9139 33.6346 15.0368C33.9979 14.1597 34.093 13.1946 33.9078 12.2635C33.7226 11.3324 33.2654 10.4771 32.5941 9.80579C31.9228 9.1345 31.0675 8.67734 30.1364 8.49214C29.2053 8.30693 28.2402 8.40198 27.3631 8.76528C26.486 9.12858 25.7364 9.74381 25.2089 10.5332C24.6815 11.3225 24.4 12.2506 24.4 13.1999" stroke="white" stroke-width="3" stroke-linecap="round" stroke-linejoin="round"/>
</svg>
