<svg width="609" height="580" viewBox="0 0 609 580" fill="none" xmlns="http://www.w3.org/2000/svg">
<g filter="url(#filter0_ii)">
<rect y="34" width="540" height="545.921" rx="270" fill="#050F13"/>
</g>
<g filter="url(#filter1_dd)">
<path d="M49 307C49 418.522 136.768 509.546 246.999 514.764C252.516 515.025 257 510.523 257 505V109C257 103.477 252.516 98.9751 246.999 99.2362C136.768 104.454 49 195.478 49 307Z" fill="#050F13"/>
</g>
<path d="M117.479 316.96C118.631 316.656 119.719 316.44 120.743 316.312C121.783 316.168 122.767 316.096 123.695 316.096C125.439 316.096 126.975 316.344 128.303 316.84C129.647 317.336 130.759 318.032 131.639 318.928C132.535 319.808 133.207 320.864 133.655 322.096C134.119 323.312 134.351 324.656 134.351 326.128C134.351 327.904 134.047 329.488 133.439 330.88C132.831 332.272 131.999 333.456 130.943 334.432C129.903 335.392 128.695 336.128 127.319 336.64C125.943 337.136 124.487 337.384 122.951 337.384C122.055 337.384 121.199 337.304 120.383 337.144C119.567 337 118.799 336.8 118.079 336.544C117.359 336.288 116.695 336 116.087 335.68C115.495 335.344 114.975 335.008 114.527 334.672L114.887 334.192C114.983 334.032 115.135 333.952 115.343 333.952C115.503 333.952 115.775 334.072 116.159 334.312C116.543 334.552 117.047 334.816 117.671 335.104C118.311 335.376 119.071 335.632 119.951 335.872C120.831 336.112 121.847 336.232 122.999 336.232C124.391 336.232 125.695 336.016 126.911 335.584C128.127 335.136 129.191 334.488 130.103 333.64C131.015 332.776 131.735 331.72 132.263 330.472C132.791 329.208 133.055 327.76 133.055 326.128C133.055 324.816 132.863 323.616 132.479 322.528C132.095 321.424 131.511 320.472 130.727 319.672C129.959 318.872 128.975 318.248 127.775 317.8C126.575 317.352 125.159 317.128 123.527 317.128C121.655 317.128 119.495 317.44 117.047 318.064L116.207 317.776L118.775 303.256H133.535V303.784C133.535 303.96 133.471 304.112 133.343 304.24C133.231 304.352 133.047 304.408 132.791 304.408H119.735L117.479 316.96ZM164.475 320.128C164.475 323.088 164.155 325.648 163.515 327.808C162.891 329.968 162.035 331.752 160.947 333.16C159.859 334.568 158.587 335.616 157.131 336.304C155.675 336.992 154.123 337.336 152.475 337.336C150.827 337.336 149.275 336.992 147.819 336.304C146.363 335.616 145.091 334.568 144.003 333.16C142.915 331.752 142.051 329.968 141.411 327.808C140.787 325.648 140.475 323.088 140.475 320.128C140.475 317.184 140.787 314.632 141.411 312.472C142.051 310.296 142.915 308.496 144.003 307.072C145.091 305.648 146.363 304.592 147.819 303.904C149.275 303.216 150.827 302.872 152.475 302.872C154.123 302.872 155.675 303.216 157.131 303.904C158.587 304.592 159.859 305.648 160.947 307.072C162.035 308.496 162.891 310.296 163.515 312.472C164.155 314.632 164.475 317.184 164.475 320.128ZM163.155 320.128C163.155 317.296 162.867 314.864 162.291 312.832C161.731 310.784 160.963 309.104 159.987 307.792C159.011 306.464 157.875 305.488 156.579 304.864C155.283 304.24 153.915 303.928 152.475 303.928C151.019 303.928 149.643 304.24 148.347 304.864C147.051 305.488 145.915 306.464 144.939 307.792C143.963 309.104 143.187 310.784 142.611 312.832C142.035 314.864 141.747 317.296 141.747 320.128C141.747 322.96 142.035 325.4 142.611 327.448C143.187 329.48 143.963 331.152 144.939 332.464C145.915 333.76 147.051 334.72 148.347 335.344C149.643 335.968 151.019 336.28 152.475 336.28C153.915 336.28 155.283 335.968 156.579 335.344C157.875 334.72 159.011 333.76 159.987 332.464C160.963 331.152 161.731 329.48 162.291 327.448C162.867 325.4 163.155 322.96 163.155 320.128ZM182.718 311.368C182.718 312.792 182.534 314.032 182.166 315.088C181.798 316.144 181.302 317.024 180.678 317.728C180.054 318.416 179.326 318.936 178.494 319.288C177.662 319.624 176.782 319.792 175.854 319.792C174.894 319.792 173.998 319.624 173.166 319.288C172.334 318.936 171.606 318.416 170.982 317.728C170.358 317.024 169.862 316.144 169.494 315.088C169.142 314.032 168.966 312.792 168.966 311.368C168.966 309.928 169.142 308.68 169.494 307.624C169.862 306.552 170.358 305.664 170.982 304.96C171.606 304.256 172.334 303.736 173.166 303.4C173.998 303.048 174.894 302.872 175.854 302.872C176.798 302.872 177.686 303.048 178.518 303.4C179.35 303.736 180.078 304.256 180.702 304.96C181.326 305.664 181.814 306.552 182.166 307.624C182.534 308.68 182.718 309.928 182.718 311.368ZM181.686 311.368C181.686 310.04 181.526 308.896 181.206 307.936C180.902 306.976 180.486 306.192 179.958 305.584C179.43 304.96 178.806 304.504 178.086 304.216C177.382 303.912 176.638 303.76 175.854 303.76C175.054 303.76 174.294 303.912 173.574 304.216C172.87 304.504 172.254 304.96 171.726 305.584C171.198 306.192 170.774 306.976 170.454 307.936C170.15 308.896 169.998 310.04 169.998 311.368C169.998 312.696 170.15 313.84 170.454 314.8C170.774 315.744 171.198 316.52 171.726 317.128C172.254 317.736 172.87 318.184 173.574 318.472C174.294 318.76 175.054 318.904 175.854 318.904C176.638 318.904 177.382 318.76 178.086 318.472C178.806 318.184 179.43 317.736 179.958 317.128C180.486 316.52 180.902 315.744 181.206 314.8C181.526 313.84 181.686 312.696 181.686 311.368ZM196.014 303.544C196.094 303.448 196.174 303.376 196.254 303.328C196.334 303.28 196.446 303.256 196.59 303.256H197.43L173.454 336.712C173.326 336.904 173.142 337 172.902 337H172.038L196.014 303.544ZM200.718 328.96C200.718 330.384 200.534 331.624 200.166 332.68C199.798 333.736 199.294 334.616 198.654 335.32C198.03 336.008 197.302 336.528 196.47 336.88C195.638 337.216 194.758 337.384 193.83 337.384C192.886 337.384 191.99 337.216 191.142 336.88C190.31 336.528 189.582 336.008 188.958 335.32C188.334 334.616 187.838 333.736 187.47 332.68C187.118 331.624 186.942 330.384 186.942 328.96C186.942 327.52 187.118 326.272 187.47 325.216C187.838 324.144 188.334 323.264 188.958 322.576C189.582 321.872 190.31 321.352 191.142 321.016C191.99 320.664 192.886 320.488 193.83 320.488C194.774 320.488 195.662 320.664 196.494 321.016C197.326 321.352 198.054 321.872 198.678 322.576C199.302 323.264 199.798 324.144 200.166 325.216C200.534 326.272 200.718 327.52 200.718 328.96ZM199.686 328.96C199.686 327.632 199.526 326.488 199.206 325.528C198.902 324.568 198.486 323.784 197.958 323.176C197.43 322.552 196.806 322.096 196.086 321.808C195.382 321.504 194.63 321.352 193.83 321.352C193.03 321.352 192.278 321.504 191.574 321.808C190.87 322.096 190.254 322.552 189.726 323.176C189.198 323.784 188.774 324.568 188.454 325.528C188.15 326.488 187.998 327.632 187.998 328.96C187.998 330.288 188.15 331.432 188.454 332.392C188.774 333.336 189.198 334.12 189.726 334.744C190.254 335.352 190.87 335.8 191.574 336.088C192.278 336.376 193.03 336.52 193.83 336.52C194.63 336.52 195.382 336.376 196.086 336.088C196.806 335.8 197.43 335.352 197.958 334.744C198.486 334.12 198.902 333.336 199.206 332.392C199.526 331.432 199.686 330.288 199.686 328.96Z" fill="#D1BF21"/>
<path d="M117.479 316.96C118.631 316.656 119.719 316.44 120.743 316.312C121.783 316.168 122.767 316.096 123.695 316.096C125.439 316.096 126.975 316.344 128.303 316.84C129.647 317.336 130.759 318.032 131.639 318.928C132.535 319.808 133.207 320.864 133.655 322.096C134.119 323.312 134.351 324.656 134.351 326.128C134.351 327.904 134.047 329.488 133.439 330.88C132.831 332.272 131.999 333.456 130.943 334.432C129.903 335.392 128.695 336.128 127.319 336.64C125.943 337.136 124.487 337.384 122.951 337.384C122.055 337.384 121.199 337.304 120.383 337.144C119.567 337 118.799 336.8 118.079 336.544C117.359 336.288 116.695 336 116.087 335.68C115.495 335.344 114.975 335.008 114.527 334.672L114.887 334.192C114.983 334.032 115.135 333.952 115.343 333.952C115.503 333.952 115.775 334.072 116.159 334.312C116.543 334.552 117.047 334.816 117.671 335.104C118.311 335.376 119.071 335.632 119.951 335.872C120.831 336.112 121.847 336.232 122.999 336.232C124.391 336.232 125.695 336.016 126.911 335.584C128.127 335.136 129.191 334.488 130.103 333.64C131.015 332.776 131.735 331.72 132.263 330.472C132.791 329.208 133.055 327.76 133.055 326.128C133.055 324.816 132.863 323.616 132.479 322.528C132.095 321.424 131.511 320.472 130.727 319.672C129.959 318.872 128.975 318.248 127.775 317.8C126.575 317.352 125.159 317.128 123.527 317.128C121.655 317.128 119.495 317.44 117.047 318.064L116.207 317.776L118.775 303.256H133.535V303.784C133.535 303.96 133.471 304.112 133.343 304.24C133.231 304.352 133.047 304.408 132.791 304.408H119.735L117.479 316.96ZM164.475 320.128C164.475 323.088 164.155 325.648 163.515 327.808C162.891 329.968 162.035 331.752 160.947 333.16C159.859 334.568 158.587 335.616 157.131 336.304C155.675 336.992 154.123 337.336 152.475 337.336C150.827 337.336 149.275 336.992 147.819 336.304C146.363 335.616 145.091 334.568 144.003 333.16C142.915 331.752 142.051 329.968 141.411 327.808C140.787 325.648 140.475 323.088 140.475 320.128C140.475 317.184 140.787 314.632 141.411 312.472C142.051 310.296 142.915 308.496 144.003 307.072C145.091 305.648 146.363 304.592 147.819 303.904C149.275 303.216 150.827 302.872 152.475 302.872C154.123 302.872 155.675 303.216 157.131 303.904C158.587 304.592 159.859 305.648 160.947 307.072C162.035 308.496 162.891 310.296 163.515 312.472C164.155 314.632 164.475 317.184 164.475 320.128ZM163.155 320.128C163.155 317.296 162.867 314.864 162.291 312.832C161.731 310.784 160.963 309.104 159.987 307.792C159.011 306.464 157.875 305.488 156.579 304.864C155.283 304.24 153.915 303.928 152.475 303.928C151.019 303.928 149.643 304.24 148.347 304.864C147.051 305.488 145.915 306.464 144.939 307.792C143.963 309.104 143.187 310.784 142.611 312.832C142.035 314.864 141.747 317.296 141.747 320.128C141.747 322.96 142.035 325.4 142.611 327.448C143.187 329.48 143.963 331.152 144.939 332.464C145.915 333.76 147.051 334.72 148.347 335.344C149.643 335.968 151.019 336.28 152.475 336.28C153.915 336.28 155.283 335.968 156.579 335.344C157.875 334.72 159.011 333.76 159.987 332.464C160.963 331.152 161.731 329.48 162.291 327.448C162.867 325.4 163.155 322.96 163.155 320.128ZM182.718 311.368C182.718 312.792 182.534 314.032 182.166 315.088C181.798 316.144 181.302 317.024 180.678 317.728C180.054 318.416 179.326 318.936 178.494 319.288C177.662 319.624 176.782 319.792 175.854 319.792C174.894 319.792 173.998 319.624 173.166 319.288C172.334 318.936 171.606 318.416 170.982 317.728C170.358 317.024 169.862 316.144 169.494 315.088C169.142 314.032 168.966 312.792 168.966 311.368C168.966 309.928 169.142 308.68 169.494 307.624C169.862 306.552 170.358 305.664 170.982 304.96C171.606 304.256 172.334 303.736 173.166 303.4C173.998 303.048 174.894 302.872 175.854 302.872C176.798 302.872 177.686 303.048 178.518 303.4C179.35 303.736 180.078 304.256 180.702 304.96C181.326 305.664 181.814 306.552 182.166 307.624C182.534 308.68 182.718 309.928 182.718 311.368ZM181.686 311.368C181.686 310.04 181.526 308.896 181.206 307.936C180.902 306.976 180.486 306.192 179.958 305.584C179.43 304.96 178.806 304.504 178.086 304.216C177.382 303.912 176.638 303.76 175.854 303.76C175.054 303.76 174.294 303.912 173.574 304.216C172.87 304.504 172.254 304.96 171.726 305.584C171.198 306.192 170.774 306.976 170.454 307.936C170.15 308.896 169.998 310.04 169.998 311.368C169.998 312.696 170.15 313.84 170.454 314.8C170.774 315.744 171.198 316.52 171.726 317.128C172.254 317.736 172.87 318.184 173.574 318.472C174.294 318.76 175.054 318.904 175.854 318.904C176.638 318.904 177.382 318.76 178.086 318.472C178.806 318.184 179.43 317.736 179.958 317.128C180.486 316.52 180.902 315.744 181.206 314.8C181.526 313.84 181.686 312.696 181.686 311.368ZM196.014 303.544C196.094 303.448 196.174 303.376 196.254 303.328C196.334 303.28 196.446 303.256 196.59 303.256H197.43L173.454 336.712C173.326 336.904 173.142 337 172.902 337H172.038L196.014 303.544ZM200.718 328.96C200.718 330.384 200.534 331.624 200.166 332.68C199.798 333.736 199.294 334.616 198.654 335.32C198.03 336.008 197.302 336.528 196.47 336.88C195.638 337.216 194.758 337.384 193.83 337.384C192.886 337.384 191.99 337.216 191.142 336.88C190.31 336.528 189.582 336.008 188.958 335.32C188.334 334.616 187.838 333.736 187.47 332.68C187.118 331.624 186.942 330.384 186.942 328.96C186.942 327.52 187.118 326.272 187.47 325.216C187.838 324.144 188.334 323.264 188.958 322.576C189.582 321.872 190.31 321.352 191.142 321.016C191.99 320.664 192.886 320.488 193.83 320.488C194.774 320.488 195.662 320.664 196.494 321.016C197.326 321.352 198.054 321.872 198.678 322.576C199.302 323.264 199.798 324.144 200.166 325.216C200.534 326.272 200.718 327.52 200.718 328.96ZM199.686 328.96C199.686 327.632 199.526 326.488 199.206 325.528C198.902 324.568 198.486 323.784 197.958 323.176C197.43 322.552 196.806 322.096 196.086 321.808C195.382 321.504 194.63 321.352 193.83 321.352C193.03 321.352 192.278 321.504 191.574 321.808C190.87 322.096 190.254 322.552 189.726 323.176C189.198 323.784 188.774 324.568 188.454 325.528C188.15 326.488 187.998 327.632 187.998 328.96C187.998 330.288 188.15 331.432 188.454 332.392C188.774 333.336 189.198 334.12 189.726 334.744C190.254 335.352 190.87 335.8 191.574 336.088C192.278 336.376 193.03 336.52 193.83 336.52C194.63 336.52 195.382 336.376 196.086 336.088C196.806 335.8 197.43 335.352 197.958 334.744C198.486 334.12 198.902 333.336 199.206 332.392C199.526 331.432 199.686 330.288 199.686 328.96Z" fill="#D1BF21"/>
<g filter="url(#filter2_dd)">
<path d="M490 306.827C490 195.397 402.232 104.45 292.001 99.236C286.484 98.9751 282 103.477 282 109L282 298.965C282 303.579 285.156 307.593 289.639 308.682L474.307 353.541C479.829 354.883 485.358 351.359 486.473 345.787L486.75 344.403L488.607 332.341L490 306.827Z" fill="#050F13"/>
</g>
<path d="M327.791 243.776C327.983 242.384 328.359 241.144 328.919 240.056C329.495 238.952 330.223 238.016 331.103 237.248C331.983 236.48 332.999 235.896 334.151 235.496C335.303 235.08 336.559 234.872 337.919 234.872C339.135 234.872 340.295 235.04 341.399 235.376C342.519 235.712 343.503 236.232 344.351 236.936C345.215 237.624 345.903 238.504 346.415 239.576C346.927 240.632 347.183 241.888 347.183 243.344C347.183 244.448 346.991 245.456 346.607 246.368C346.223 247.28 345.703 248.088 345.047 248.792C344.391 249.48 343.623 250.056 342.743 250.52C341.879 250.968 340.967 251.296 340.007 251.504C341.319 251.68 342.479 252.008 343.487 252.488C344.495 252.968 345.343 253.576 346.031 254.312C346.719 255.032 347.231 255.872 347.567 256.832C347.919 257.776 348.095 258.808 348.095 259.928C348.095 261.224 347.823 262.448 347.279 263.6C346.751 264.752 346.015 265.76 345.071 266.624C344.127 267.472 343.007 268.144 341.711 268.64C340.415 269.136 338.999 269.384 337.463 269.384C336.135 269.384 334.967 269.256 333.959 269C332.951 268.744 332.071 268.4 331.319 267.968C330.567 267.536 329.927 267.032 329.399 266.456C328.887 265.88 328.447 265.28 328.079 264.656C327.727 264.016 327.439 263.368 327.215 262.712C326.991 262.056 326.807 261.432 326.663 260.84L327.071 260.648C327.199 260.6 327.359 260.592 327.551 260.624C327.743 260.64 327.887 260.784 327.983 261.056C328.031 261.184 328.111 261.456 328.223 261.872C328.351 262.288 328.535 262.768 328.775 263.312C329.031 263.84 329.375 264.4 329.807 264.992C330.239 265.584 330.799 266.128 331.487 266.624C332.175 267.12 332.999 267.528 333.959 267.848C334.935 268.168 336.095 268.328 337.439 268.328C339.007 268.328 340.375 268.072 341.543 267.56C342.727 267.032 343.711 266.36 344.495 265.544C345.279 264.728 345.863 263.824 346.247 262.832C346.647 261.84 346.847 260.88 346.847 259.952C346.847 258.848 346.655 257.824 346.271 256.88C345.903 255.92 345.303 255.088 344.471 254.384C343.655 253.68 342.591 253.128 341.279 252.728C339.983 252.328 338.399 252.12 336.527 252.104V251.216C337.999 251.168 339.319 250.952 340.487 250.568C341.655 250.184 342.639 249.656 343.439 248.984C344.255 248.296 344.871 247.488 345.287 246.56C345.719 245.632 345.935 244.608 345.935 243.488C345.935 242.176 345.711 241.04 345.263 240.08C344.815 239.12 344.215 238.336 343.463 237.728C342.727 237.12 341.871 236.672 340.895 236.384C339.935 236.08 338.927 235.928 337.871 235.928C336.687 235.928 335.599 236.112 334.607 236.48C333.615 236.832 332.735 237.336 331.967 237.992C331.215 238.632 330.591 239.408 330.095 240.32C329.599 241.216 329.255 242.208 329.063 243.296C328.999 243.52 328.919 243.68 328.823 243.776C328.727 243.856 328.583 243.88 328.391 243.848L327.791 243.776ZM377.475 252.128C377.475 255.088 377.155 257.648 376.515 259.808C375.891 261.968 375.035 263.752 373.947 265.16C372.859 266.568 371.587 267.616 370.131 268.304C368.675 268.992 367.123 269.336 365.475 269.336C363.827 269.336 362.275 268.992 360.819 268.304C359.363 267.616 358.091 266.568 357.003 265.16C355.915 263.752 355.051 261.968 354.411 259.808C353.787 257.648 353.475 255.088 353.475 252.128C353.475 249.184 353.787 246.632 354.411 244.472C355.051 242.296 355.915 240.496 357.003 239.072C358.091 237.648 359.363 236.592 360.819 235.904C362.275 235.216 363.827 234.872 365.475 234.872C367.123 234.872 368.675 235.216 370.131 235.904C371.587 236.592 372.859 237.648 373.947 239.072C375.035 240.496 375.891 242.296 376.515 244.472C377.155 246.632 377.475 249.184 377.475 252.128ZM376.155 252.128C376.155 249.296 375.867 246.864 375.291 244.832C374.731 242.784 373.963 241.104 372.987 239.792C372.011 238.464 370.875 237.488 369.579 236.864C368.283 236.24 366.915 235.928 365.475 235.928C364.019 235.928 362.643 236.24 361.347 236.864C360.051 237.488 358.915 238.464 357.939 239.792C356.963 241.104 356.187 242.784 355.611 244.832C355.035 246.864 354.747 249.296 354.747 252.128C354.747 254.96 355.035 257.4 355.611 259.448C356.187 261.48 356.963 263.152 357.939 264.464C358.915 265.76 360.051 266.72 361.347 267.344C362.643 267.968 364.019 268.28 365.475 268.28C366.915 268.28 368.283 267.968 369.579 267.344C370.875 266.72 372.011 265.76 372.987 264.464C373.963 263.152 374.731 261.48 375.291 259.448C375.867 257.4 376.155 254.96 376.155 252.128ZM395.718 243.368C395.718 244.792 395.534 246.032 395.166 247.088C394.798 248.144 394.302 249.024 393.678 249.728C393.054 250.416 392.326 250.936 391.494 251.288C390.662 251.624 389.782 251.792 388.854 251.792C387.894 251.792 386.998 251.624 386.166 251.288C385.334 250.936 384.606 250.416 383.982 249.728C383.358 249.024 382.862 248.144 382.494 247.088C382.142 246.032 381.966 244.792 381.966 243.368C381.966 241.928 382.142 240.68 382.494 239.624C382.862 238.552 383.358 237.664 383.982 236.96C384.606 236.256 385.334 235.736 386.166 235.4C386.998 235.048 387.894 234.872 388.854 234.872C389.798 234.872 390.686 235.048 391.518 235.4C392.35 235.736 393.078 236.256 393.702 236.96C394.326 237.664 394.814 238.552 395.166 239.624C395.534 240.68 395.718 241.928 395.718 243.368ZM394.686 243.368C394.686 242.04 394.526 240.896 394.206 239.936C393.902 238.976 393.486 238.192 392.958 237.584C392.43 236.96 391.806 236.504 391.086 236.216C390.382 235.912 389.638 235.76 388.854 235.76C388.054 235.76 387.294 235.912 386.574 236.216C385.87 236.504 385.254 236.96 384.726 237.584C384.198 238.192 383.774 238.976 383.454 239.936C383.15 240.896 382.998 242.04 382.998 243.368C382.998 244.696 383.15 245.84 383.454 246.8C383.774 247.744 384.198 248.52 384.726 249.128C385.254 249.736 385.87 250.184 386.574 250.472C387.294 250.76 388.054 250.904 388.854 250.904C389.638 250.904 390.382 250.76 391.086 250.472C391.806 250.184 392.43 249.736 392.958 249.128C393.486 248.52 393.902 247.744 394.206 246.8C394.526 245.84 394.686 244.696 394.686 243.368ZM409.014 235.544C409.094 235.448 409.174 235.376 409.254 235.328C409.334 235.28 409.446 235.256 409.59 235.256H410.43L386.454 268.712C386.326 268.904 386.142 269 385.902 269H385.038L409.014 235.544ZM413.718 260.96C413.718 262.384 413.534 263.624 413.166 264.68C412.798 265.736 412.294 266.616 411.654 267.32C411.03 268.008 410.302 268.528 409.47 268.88C408.638 269.216 407.758 269.384 406.83 269.384C405.886 269.384 404.99 269.216 404.142 268.88C403.31 268.528 402.582 268.008 401.958 267.32C401.334 266.616 400.838 265.736 400.47 264.68C400.118 263.624 399.942 262.384 399.942 260.96C399.942 259.52 400.118 258.272 400.47 257.216C400.838 256.144 401.334 255.264 401.958 254.576C402.582 253.872 403.31 253.352 404.142 253.016C404.99 252.664 405.886 252.488 406.83 252.488C407.774 252.488 408.662 252.664 409.494 253.016C410.326 253.352 411.054 253.872 411.678 254.576C412.302 255.264 412.798 256.144 413.166 257.216C413.534 258.272 413.718 259.52 413.718 260.96ZM412.686 260.96C412.686 259.632 412.526 258.488 412.206 257.528C411.902 256.568 411.486 255.784 410.958 255.176C410.43 254.552 409.806 254.096 409.086 253.808C408.382 253.504 407.63 253.352 406.83 253.352C406.03 253.352 405.278 253.504 404.574 253.808C403.87 254.096 403.254 254.552 402.726 255.176C402.198 255.784 401.774 256.568 401.454 257.528C401.15 258.488 400.998 259.632 400.998 260.96C400.998 262.288 401.15 263.432 401.454 264.392C401.774 265.336 402.198 266.12 402.726 266.744C403.254 267.352 403.87 267.8 404.574 268.088C405.278 268.376 406.03 268.52 406.83 268.52C407.63 268.52 408.382 268.376 409.086 268.088C409.806 267.8 410.43 267.352 410.958 266.744C411.486 266.12 411.902 265.336 412.206 264.392C412.526 263.432 412.686 262.288 412.686 260.96Z" fill="#2391C4"/>
<g filter="url(#filter3_dd)">
<path d="M282 505L282 349.835C282 343.321 288.129 338.546 294.445 340.139L463.828 382.855C469.726 384.342 472.955 390.719 470.342 396.211C438.278 463.605 370.881 511.048 292.003 514.765C286.486 515.025 282 510.523 282 505Z" fill="#050F13"/>
</g>
<path d="M339.163 430.824C339.467 430.824 339.619 430.976 339.619 431.28V432H318.259V431.544C318.259 431.416 318.283 431.304 318.331 431.208C318.395 431.096 318.467 431 318.547 430.92L330.451 418.872C331.427 417.88 332.339 416.912 333.187 415.968C334.035 415.024 334.779 414.072 335.419 413.112C336.059 412.136 336.563 411.136 336.931 410.112C337.299 409.088 337.483 407.992 337.483 406.824C337.483 405.448 337.251 404.264 336.787 403.272C336.323 402.28 335.707 401.464 334.939 400.824C334.171 400.168 333.291 399.688 332.299 399.384C331.323 399.08 330.307 398.928 329.251 398.928C328.067 398.928 326.979 399.112 325.987 399.48C325.011 399.832 324.139 400.336 323.371 400.992C322.619 401.632 321.995 402.408 321.499 403.32C321.019 404.216 320.683 405.208 320.491 406.296C320.379 406.712 320.139 406.896 319.771 406.848L319.171 406.776C319.363 405.384 319.739 404.144 320.299 403.056C320.875 401.952 321.603 401.016 322.483 400.248C323.363 399.48 324.379 398.896 325.531 398.496C326.683 398.08 327.939 397.872 329.299 397.872C330.515 397.872 331.691 398.048 332.827 398.4C333.963 398.752 334.971 399.296 335.851 400.032C336.731 400.752 337.435 401.68 337.963 402.816C338.491 403.936 338.755 405.264 338.755 406.8C338.755 408.08 338.555 409.272 338.155 410.376C337.755 411.48 337.211 412.536 336.523 413.544C335.851 414.552 335.067 415.536 334.171 416.496C333.275 417.456 332.331 418.432 331.339 419.424L319.963 431.04C320.379 430.976 320.827 430.928 321.307 430.896C321.803 430.848 322.323 430.824 322.867 430.824H339.163ZM368.975 415.128C368.975 418.088 368.655 420.648 368.015 422.808C367.391 424.968 366.535 426.752 365.447 428.16C364.359 429.568 363.087 430.616 361.631 431.304C360.175 431.992 358.623 432.336 356.975 432.336C355.327 432.336 353.775 431.992 352.319 431.304C350.863 430.616 349.591 429.568 348.503 428.16C347.415 426.752 346.551 424.968 345.911 422.808C345.287 420.648 344.975 418.088 344.975 415.128C344.975 412.184 345.287 409.632 345.911 407.472C346.551 405.296 347.415 403.496 348.503 402.072C349.591 400.648 350.863 399.592 352.319 398.904C353.775 398.216 355.327 397.872 356.975 397.872C358.623 397.872 360.175 398.216 361.631 398.904C363.087 399.592 364.359 400.648 365.447 402.072C366.535 403.496 367.391 405.296 368.015 407.472C368.655 409.632 368.975 412.184 368.975 415.128ZM367.655 415.128C367.655 412.296 367.367 409.864 366.791 407.832C366.231 405.784 365.463 404.104 364.487 402.792C363.511 401.464 362.375 400.488 361.079 399.864C359.783 399.24 358.415 398.928 356.975 398.928C355.519 398.928 354.143 399.24 352.847 399.864C351.551 400.488 350.415 401.464 349.439 402.792C348.463 404.104 347.687 405.784 347.111 407.832C346.535 409.864 346.247 412.296 346.247 415.128C346.247 417.96 346.535 420.4 347.111 422.448C347.687 424.48 348.463 426.152 349.439 427.464C350.415 428.76 351.551 429.72 352.847 430.344C354.143 430.968 355.519 431.28 356.975 431.28C358.415 431.28 359.783 430.968 361.079 430.344C362.375 429.72 363.511 428.76 364.487 427.464C365.463 426.152 366.231 424.48 366.791 422.448C367.367 420.4 367.655 417.96 367.655 415.128ZM387.218 406.368C387.218 407.792 387.034 409.032 386.666 410.088C386.298 411.144 385.802 412.024 385.178 412.728C384.554 413.416 383.826 413.936 382.994 414.288C382.162 414.624 381.282 414.792 380.354 414.792C379.394 414.792 378.498 414.624 377.666 414.288C376.834 413.936 376.106 413.416 375.482 412.728C374.858 412.024 374.362 411.144 373.994 410.088C373.642 409.032 373.466 407.792 373.466 406.368C373.466 404.928 373.642 403.68 373.994 402.624C374.362 401.552 374.858 400.664 375.482 399.96C376.106 399.256 376.834 398.736 377.666 398.4C378.498 398.048 379.394 397.872 380.354 397.872C381.298 397.872 382.186 398.048 383.018 398.4C383.85 398.736 384.578 399.256 385.202 399.96C385.826 400.664 386.314 401.552 386.666 402.624C387.034 403.68 387.218 404.928 387.218 406.368ZM386.186 406.368C386.186 405.04 386.026 403.896 385.706 402.936C385.402 401.976 384.986 401.192 384.458 400.584C383.93 399.96 383.306 399.504 382.586 399.216C381.882 398.912 381.138 398.76 380.354 398.76C379.554 398.76 378.794 398.912 378.074 399.216C377.37 399.504 376.754 399.96 376.226 400.584C375.698 401.192 375.274 401.976 374.954 402.936C374.65 403.896 374.498 405.04 374.498 406.368C374.498 407.696 374.65 408.84 374.954 409.8C375.274 410.744 375.698 411.52 376.226 412.128C376.754 412.736 377.37 413.184 378.074 413.472C378.794 413.76 379.554 413.904 380.354 413.904C381.138 413.904 381.882 413.76 382.586 413.472C383.306 413.184 383.93 412.736 384.458 412.128C384.986 411.52 385.402 410.744 385.706 409.8C386.026 408.84 386.186 407.696 386.186 406.368ZM400.514 398.544C400.594 398.448 400.674 398.376 400.754 398.328C400.834 398.28 400.946 398.256 401.09 398.256H401.93L377.954 431.712C377.826 431.904 377.642 432 377.402 432H376.538L400.514 398.544ZM405.218 423.96C405.218 425.384 405.034 426.624 404.666 427.68C404.298 428.736 403.794 429.616 403.154 430.32C402.53 431.008 401.802 431.528 400.97 431.88C400.138 432.216 399.258 432.384 398.33 432.384C397.386 432.384 396.49 432.216 395.642 431.88C394.81 431.528 394.082 431.008 393.458 430.32C392.834 429.616 392.338 428.736 391.97 427.68C391.618 426.624 391.442 425.384 391.442 423.96C391.442 422.52 391.618 421.272 391.97 420.216C392.338 419.144 392.834 418.264 393.458 417.576C394.082 416.872 394.81 416.352 395.642 416.016C396.49 415.664 397.386 415.488 398.33 415.488C399.274 415.488 400.162 415.664 400.994 416.016C401.826 416.352 402.554 416.872 403.178 417.576C403.802 418.264 404.298 419.144 404.666 420.216C405.034 421.272 405.218 422.52 405.218 423.96ZM404.186 423.96C404.186 422.632 404.026 421.488 403.706 420.528C403.402 419.568 402.986 418.784 402.458 418.176C401.93 417.552 401.306 417.096 400.586 416.808C399.882 416.504 399.13 416.352 398.33 416.352C397.53 416.352 396.778 416.504 396.074 416.808C395.37 417.096 394.754 417.552 394.226 418.176C393.698 418.784 393.274 419.568 392.954 420.528C392.65 421.488 392.498 422.632 392.498 423.96C392.498 425.288 392.65 426.432 392.954 427.392C393.274 428.336 393.698 429.12 394.226 429.744C394.754 430.352 395.37 430.8 396.074 431.088C396.778 431.376 397.53 431.52 398.33 431.52C399.13 431.52 399.882 431.376 400.586 431.088C401.306 430.8 401.93 430.352 402.458 429.744C402.986 429.12 403.402 428.336 403.706 427.392C404.026 426.432 404.186 425.288 404.186 423.96Z" fill="#CB2020"/>
<g filter="url(#filter4_ii)">
<rect x="386" width="223" height="225.197" rx="111.5" fill="#050F13"/>
</g>
<path d="M500.998 29.8753C460.18 26.0749 422.024 53.2761 413.128 94.3504C408.613 118.302 412.188 131.985 415.887 141.998C418.2 148.257 426.169 151.175 431.927 147.803L489.689 113.972C492.104 112.557 493.816 110.195 494.408 107.46L508.764 41.1752C509.933 35.7775 506.497 30.3872 500.998 29.8753Z" fill="#459FBF"/>
<path d="M444.29 92.46V86.784C444.29 86.248 444.326 85.656 444.398 85.008L439.01 92.46H444.29ZM449.054 92.46V94.176C449.054 94.336 449.002 94.476 448.898 94.596C448.794 94.708 448.646 94.764 448.454 94.764H446.87V99H444.29V94.764H436.97C436.77 94.764 436.594 94.704 436.442 94.584C436.29 94.456 436.194 94.3 436.154 94.116L435.842 92.616L444.062 81.636H446.87V92.46H449.054ZM462.988 90.324C462.988 91.836 462.824 93.152 462.496 94.272C462.176 95.384 461.728 96.304 461.152 97.032C460.584 97.76 459.908 98.304 459.124 98.664C458.348 99.016 457.508 99.192 456.604 99.192C455.7 99.192 454.86 99.016 454.084 98.664C453.316 98.304 452.648 97.76 452.08 97.032C451.512 96.304 451.068 95.384 450.748 94.272C450.428 93.152 450.268 91.836 450.268 90.324C450.268 88.804 450.428 87.488 450.748 86.376C451.068 85.264 451.512 84.344 452.08 83.616C452.648 82.888 453.316 82.348 454.084 81.996C454.86 81.636 455.7 81.456 456.604 81.456C457.508 81.456 458.348 81.636 459.124 81.996C459.908 82.348 460.584 82.888 461.152 83.616C461.728 84.344 462.176 85.264 462.496 86.376C462.824 87.488 462.988 88.804 462.988 90.324ZM459.928 90.324C459.928 89.068 459.836 88.028 459.652 87.204C459.468 86.38 459.22 85.724 458.908 85.236C458.604 84.748 458.252 84.408 457.852 84.216C457.452 84.016 457.036 83.916 456.604 83.916C456.18 83.916 455.768 84.016 455.368 84.216C454.976 84.408 454.628 84.748 454.324 85.236C454.02 85.724 453.776 86.38 453.592 87.204C453.416 88.028 453.328 89.068 453.328 90.324C453.328 91.58 453.416 92.62 453.592 93.444C453.776 94.268 454.02 94.924 454.324 95.412C454.628 95.9 454.976 96.244 455.368 96.444C455.768 96.636 456.18 96.732 456.604 96.732C457.036 96.732 457.452 96.636 457.852 96.444C458.252 96.244 458.604 95.9 458.908 95.412C459.22 94.924 459.468 94.268 459.652 93.444C459.836 92.62 459.928 91.58 459.928 90.324ZM472.53 85.848C472.53 86.504 472.418 87.096 472.194 87.624C471.978 88.152 471.686 88.604 471.318 88.98C470.95 89.348 470.522 89.632 470.034 89.832C469.546 90.032 469.038 90.132 468.51 90.132C467.934 90.132 467.402 90.032 466.914 89.832C466.426 89.632 466.002 89.348 465.642 88.98C465.29 88.604 465.014 88.152 464.814 87.624C464.614 87.096 464.514 86.504 464.514 85.848C464.514 85.176 464.614 84.568 464.814 84.024C465.014 83.48 465.29 83.02 465.642 82.644C466.002 82.268 466.426 81.98 466.914 81.78C467.402 81.572 467.934 81.468 468.51 81.468C469.086 81.468 469.618 81.572 470.106 81.78C470.602 81.98 471.03 82.268 471.39 82.644C471.75 83.02 472.03 83.48 472.23 84.024C472.43 84.568 472.53 85.176 472.53 85.848ZM470.25 85.848C470.25 85.384 470.202 84.996 470.106 84.684C470.018 84.372 469.894 84.12 469.734 83.928C469.582 83.736 469.398 83.6 469.182 83.52C468.974 83.432 468.75 83.388 468.51 83.388C468.27 83.388 468.046 83.432 467.838 83.52C467.63 83.6 467.45 83.736 467.298 83.928C467.154 84.12 467.038 84.372 466.95 84.684C466.862 84.996 466.818 85.384 466.818 85.848C466.818 86.296 466.862 86.672 466.95 86.976C467.038 87.272 467.154 87.512 467.298 87.696C467.45 87.88 467.63 88.012 467.838 88.092C468.046 88.172 468.27 88.212 468.51 88.212C468.75 88.212 468.974 88.172 469.182 88.092C469.398 88.012 469.582 87.88 469.734 87.696C469.894 87.512 470.018 87.272 470.106 86.976C470.202 86.672 470.25 86.296 470.25 85.848ZM478.302 82.116C478.406 81.996 478.526 81.888 478.662 81.792C478.806 81.696 479.006 81.648 479.262 81.648H481.422L468.534 98.556C468.43 98.684 468.306 98.792 468.162 98.88C468.018 98.96 467.842 99 467.634 99H465.426L478.302 82.116ZM482.334 94.92C482.334 95.576 482.222 96.168 481.998 96.696C481.782 97.224 481.49 97.676 481.122 98.052C480.754 98.42 480.326 98.708 479.838 98.916C479.35 99.116 478.842 99.216 478.314 99.216C477.738 99.216 477.206 99.116 476.718 98.916C476.23 98.708 475.806 98.42 475.446 98.052C475.094 97.676 474.818 97.224 474.618 96.696C474.418 96.168 474.318 95.576 474.318 94.92C474.318 94.248 474.418 93.64 474.618 93.096C474.818 92.552 475.094 92.092 475.446 91.716C475.806 91.34 476.23 91.052 476.718 90.852C477.206 90.644 477.738 90.54 478.314 90.54C478.89 90.54 479.422 90.644 479.91 90.852C480.406 91.052 480.83 91.34 481.182 91.716C481.542 92.092 481.822 92.552 482.022 93.096C482.23 93.64 482.334 94.248 482.334 94.92ZM480.042 94.92C480.042 94.456 479.998 94.068 479.91 93.756C479.822 93.444 479.698 93.192 479.538 93C479.386 92.808 479.202 92.672 478.986 92.592C478.778 92.504 478.554 92.46 478.314 92.46C478.074 92.46 477.85 92.504 477.642 92.592C477.434 92.672 477.254 92.808 477.102 93C476.95 93.192 476.83 93.444 476.742 93.756C476.662 94.068 476.622 94.456 476.622 94.92C476.622 95.368 476.662 95.744 476.742 96.048C476.83 96.352 476.95 96.596 477.102 96.78C477.254 96.964 477.434 97.096 477.642 97.176C477.85 97.256 478.074 97.296 478.314 97.296C478.554 97.296 478.778 97.256 478.986 97.176C479.202 97.096 479.386 96.964 479.538 96.78C479.698 96.596 479.822 96.352 479.91 96.048C479.998 95.744 480.042 95.368 480.042 94.92Z" fill="white"/>
<path d="M431.506 168.594C456.121 201.376 501.905 211.355 538.301 190.342C559.074 177.59 566.804 165.748 571.734 156.281C574.815 150.362 571.621 142.499 565.254 140.501L501.385 120.458C498.715 119.62 495.815 119.94 493.391 121.339L434.656 155.25C429.873 158.011 428.19 164.177 431.506 168.594Z" fill="#006D95"/>
<path d="M490.29 162.46V156.784C490.29 156.248 490.326 155.656 490.398 155.008L485.01 162.46H490.29ZM495.054 162.46V164.176C495.054 164.336 495.002 164.476 494.898 164.596C494.794 164.708 494.646 164.764 494.454 164.764H492.87V169H490.29V164.764H482.97C482.77 164.764 482.594 164.704 482.442 164.584C482.29 164.456 482.194 164.3 482.154 164.116L481.842 162.616L490.062 151.636H492.87V162.46H495.054ZM508.988 160.324C508.988 161.836 508.824 163.152 508.496 164.272C508.176 165.384 507.728 166.304 507.152 167.032C506.584 167.76 505.908 168.304 505.124 168.664C504.348 169.016 503.508 169.192 502.604 169.192C501.7 169.192 500.86 169.016 500.084 168.664C499.316 168.304 498.648 167.76 498.08 167.032C497.512 166.304 497.068 165.384 496.748 164.272C496.428 163.152 496.268 161.836 496.268 160.324C496.268 158.804 496.428 157.488 496.748 156.376C497.068 155.264 497.512 154.344 498.08 153.616C498.648 152.888 499.316 152.348 500.084 151.996C500.86 151.636 501.7 151.456 502.604 151.456C503.508 151.456 504.348 151.636 505.124 151.996C505.908 152.348 506.584 152.888 507.152 153.616C507.728 154.344 508.176 155.264 508.496 156.376C508.824 157.488 508.988 158.804 508.988 160.324ZM505.928 160.324C505.928 159.068 505.836 158.028 505.652 157.204C505.468 156.38 505.22 155.724 504.908 155.236C504.604 154.748 504.252 154.408 503.852 154.216C503.452 154.016 503.036 153.916 502.604 153.916C502.18 153.916 501.768 154.016 501.368 154.216C500.976 154.408 500.628 154.748 500.324 155.236C500.02 155.724 499.776 156.38 499.592 157.204C499.416 158.028 499.328 159.068 499.328 160.324C499.328 161.58 499.416 162.62 499.592 163.444C499.776 164.268 500.02 164.924 500.324 165.412C500.628 165.9 500.976 166.244 501.368 166.444C501.768 166.636 502.18 166.732 502.604 166.732C503.036 166.732 503.452 166.636 503.852 166.444C504.252 166.244 504.604 165.9 504.908 165.412C505.22 164.924 505.468 164.268 505.652 163.444C505.836 162.62 505.928 161.58 505.928 160.324ZM518.53 155.848C518.53 156.504 518.418 157.096 518.194 157.624C517.978 158.152 517.686 158.604 517.318 158.98C516.95 159.348 516.522 159.632 516.034 159.832C515.546 160.032 515.038 160.132 514.51 160.132C513.934 160.132 513.402 160.032 512.914 159.832C512.426 159.632 512.002 159.348 511.642 158.98C511.29 158.604 511.014 158.152 510.814 157.624C510.614 157.096 510.514 156.504 510.514 155.848C510.514 155.176 510.614 154.568 510.814 154.024C511.014 153.48 511.29 153.02 511.642 152.644C512.002 152.268 512.426 151.98 512.914 151.78C513.402 151.572 513.934 151.468 514.51 151.468C515.086 151.468 515.618 151.572 516.106 151.78C516.602 151.98 517.03 152.268 517.39 152.644C517.75 153.02 518.03 153.48 518.23 154.024C518.43 154.568 518.53 155.176 518.53 155.848ZM516.25 155.848C516.25 155.384 516.202 154.996 516.106 154.684C516.018 154.372 515.894 154.12 515.734 153.928C515.582 153.736 515.398 153.6 515.182 153.52C514.974 153.432 514.75 153.388 514.51 153.388C514.27 153.388 514.046 153.432 513.838 153.52C513.63 153.6 513.45 153.736 513.298 153.928C513.154 154.12 513.038 154.372 512.95 154.684C512.862 154.996 512.818 155.384 512.818 155.848C512.818 156.296 512.862 156.672 512.95 156.976C513.038 157.272 513.154 157.512 513.298 157.696C513.45 157.88 513.63 158.012 513.838 158.092C514.046 158.172 514.27 158.212 514.51 158.212C514.75 158.212 514.974 158.172 515.182 158.092C515.398 158.012 515.582 157.88 515.734 157.696C515.894 157.512 516.018 157.272 516.106 156.976C516.202 156.672 516.25 156.296 516.25 155.848ZM524.302 152.116C524.406 151.996 524.526 151.888 524.662 151.792C524.806 151.696 525.006 151.648 525.262 151.648H527.422L514.534 168.556C514.43 168.684 514.306 168.792 514.162 168.88C514.018 168.96 513.842 169 513.634 169H511.426L524.302 152.116ZM528.334 164.92C528.334 165.576 528.222 166.168 527.998 166.696C527.782 167.224 527.49 167.676 527.122 168.052C526.754 168.42 526.326 168.708 525.838 168.916C525.35 169.116 524.842 169.216 524.314 169.216C523.738 169.216 523.206 169.116 522.718 168.916C522.23 168.708 521.806 168.42 521.446 168.052C521.094 167.676 520.818 167.224 520.618 166.696C520.418 166.168 520.318 165.576 520.318 164.92C520.318 164.248 520.418 163.64 520.618 163.096C520.818 162.552 521.094 162.092 521.446 161.716C521.806 161.34 522.23 161.052 522.718 160.852C523.206 160.644 523.738 160.54 524.314 160.54C524.89 160.54 525.422 160.644 525.91 160.852C526.406 161.052 526.83 161.34 527.182 161.716C527.542 162.092 527.822 162.552 528.022 163.096C528.23 163.64 528.334 164.248 528.334 164.92ZM526.042 164.92C526.042 164.456 525.998 164.068 525.91 163.756C525.822 163.444 525.698 163.192 525.538 163C525.386 162.808 525.202 162.672 524.986 162.592C524.778 162.504 524.554 162.46 524.314 162.46C524.074 162.46 523.85 162.504 523.642 162.592C523.434 162.672 523.254 162.808 523.102 163C522.95 163.192 522.83 163.444 522.742 163.756C522.662 164.068 522.622 164.456 522.622 164.92C522.622 165.368 522.662 165.744 522.742 166.048C522.83 166.352 522.95 166.596 523.102 166.78C523.254 166.964 523.434 167.096 523.642 167.176C523.85 167.256 524.074 167.296 524.314 167.296C524.554 167.296 524.778 167.256 524.986 167.176C525.202 167.096 525.386 166.964 525.538 166.78C525.698 166.596 525.822 166.352 525.91 166.048C525.998 165.744 526.042 165.368 526.042 164.92Z" fill="white"/>
<path d="M584.155 117.067C587.914 75.4006 562.784 42.7967 527.482 33.66C522.398 32.3442 517.5 35.8421 516.422 40.9821L503.4 103.117C502.34 108.176 505.309 113.209 510.25 114.727L575.747 134.853C578.208 135.609 580.812 134.212 581.542 131.743L582.701 127.061L584.155 117.067Z" fill="white"/>
<path d="M533.518 93.24C533.838 93.24 534.09 93.332 534.274 93.516C534.466 93.692 534.562 93.928 534.562 94.224V96H522.658V95.016C522.658 94.816 522.698 94.608 522.778 94.392C522.866 94.168 523.002 93.968 523.186 93.792L528.454 88.512C528.894 88.064 529.286 87.636 529.63 87.228C529.982 86.82 530.274 86.416 530.506 86.016C530.738 85.616 530.914 85.212 531.034 84.804C531.162 84.388 531.226 83.952 531.226 83.496C531.226 83.08 531.166 82.716 531.046 82.404C530.926 82.084 530.754 81.816 530.53 81.6C530.314 81.384 530.05 81.224 529.738 81.12C529.434 81.008 529.09 80.952 528.706 80.952C528.354 80.952 528.026 81.004 527.722 81.108C527.426 81.204 527.162 81.344 526.93 81.528C526.698 81.704 526.502 81.912 526.342 82.152C526.182 82.392 526.062 82.656 525.982 82.944C525.846 83.312 525.67 83.556 525.454 83.676C525.238 83.796 524.926 83.824 524.518 83.76L522.958 83.484C523.078 82.652 523.31 81.924 523.654 81.3C523.998 80.668 524.426 80.144 524.938 79.728C525.458 79.304 526.05 78.988 526.714 78.78C527.386 78.564 528.106 78.456 528.874 78.456C529.674 78.456 530.406 78.576 531.07 78.816C531.734 79.048 532.302 79.38 532.774 79.812C533.246 80.244 533.614 80.764 533.878 81.372C534.142 81.98 534.274 82.656 534.274 83.4C534.274 84.04 534.178 84.632 533.986 85.176C533.802 85.72 533.55 86.24 533.23 86.736C532.918 87.232 532.55 87.712 532.126 88.176C531.702 88.64 531.258 89.112 530.794 89.592L526.882 93.588C527.258 93.476 527.63 93.392 527.998 93.336C528.374 93.272 528.73 93.24 529.066 93.24H533.518ZM548.988 87.324C548.988 88.836 548.824 90.152 548.496 91.272C548.176 92.384 547.728 93.304 547.152 94.032C546.584 94.76 545.908 95.304 545.124 95.664C544.348 96.016 543.508 96.192 542.604 96.192C541.7 96.192 540.86 96.016 540.084 95.664C539.316 95.304 538.648 94.76 538.08 94.032C537.512 93.304 537.068 92.384 536.748 91.272C536.428 90.152 536.268 88.836 536.268 87.324C536.268 85.804 536.428 84.488 536.748 83.376C537.068 82.264 537.512 81.344 538.08 80.616C538.648 79.888 539.316 79.348 540.084 78.996C540.86 78.636 541.7 78.456 542.604 78.456C543.508 78.456 544.348 78.636 545.124 78.996C545.908 79.348 546.584 79.888 547.152 80.616C547.728 81.344 548.176 82.264 548.496 83.376C548.824 84.488 548.988 85.804 548.988 87.324ZM545.928 87.324C545.928 86.068 545.836 85.028 545.652 84.204C545.468 83.38 545.22 82.724 544.908 82.236C544.604 81.748 544.252 81.408 543.852 81.216C543.452 81.016 543.036 80.916 542.604 80.916C542.18 80.916 541.768 81.016 541.368 81.216C540.976 81.408 540.628 81.748 540.324 82.236C540.02 82.724 539.776 83.38 539.592 84.204C539.416 85.028 539.328 86.068 539.328 87.324C539.328 88.58 539.416 89.62 539.592 90.444C539.776 91.268 540.02 91.924 540.324 92.412C540.628 92.9 540.976 93.244 541.368 93.444C541.768 93.636 542.18 93.732 542.604 93.732C543.036 93.732 543.452 93.636 543.852 93.444C544.252 93.244 544.604 92.9 544.908 92.412C545.22 91.924 545.468 91.268 545.652 90.444C545.836 89.62 545.928 88.58 545.928 87.324ZM558.53 82.848C558.53 83.504 558.418 84.096 558.194 84.624C557.978 85.152 557.686 85.604 557.318 85.98C556.95 86.348 556.522 86.632 556.034 86.832C555.546 87.032 555.038 87.132 554.51 87.132C553.934 87.132 553.402 87.032 552.914 86.832C552.426 86.632 552.002 86.348 551.642 85.98C551.29 85.604 551.014 85.152 550.814 84.624C550.614 84.096 550.514 83.504 550.514 82.848C550.514 82.176 550.614 81.568 550.814 81.024C551.014 80.48 551.29 80.02 551.642 79.644C552.002 79.268 552.426 78.98 552.914 78.78C553.402 78.572 553.934 78.468 554.51 78.468C555.086 78.468 555.618 78.572 556.106 78.78C556.602 78.98 557.03 79.268 557.39 79.644C557.75 80.02 558.03 80.48 558.23 81.024C558.43 81.568 558.53 82.176 558.53 82.848ZM556.25 82.848C556.25 82.384 556.202 81.996 556.106 81.684C556.018 81.372 555.894 81.12 555.734 80.928C555.582 80.736 555.398 80.6 555.182 80.52C554.974 80.432 554.75 80.388 554.51 80.388C554.27 80.388 554.046 80.432 553.838 80.52C553.63 80.6 553.45 80.736 553.298 80.928C553.154 81.12 553.038 81.372 552.95 81.684C552.862 81.996 552.818 82.384 552.818 82.848C552.818 83.296 552.862 83.672 552.95 83.976C553.038 84.272 553.154 84.512 553.298 84.696C553.45 84.88 553.63 85.012 553.838 85.092C554.046 85.172 554.27 85.212 554.51 85.212C554.75 85.212 554.974 85.172 555.182 85.092C555.398 85.012 555.582 84.88 555.734 84.696C555.894 84.512 556.018 84.272 556.106 83.976C556.202 83.672 556.25 83.296 556.25 82.848ZM564.302 79.116C564.406 78.996 564.526 78.888 564.662 78.792C564.806 78.696 565.006 78.648 565.262 78.648H567.422L554.534 95.556C554.43 95.684 554.306 95.792 554.162 95.88C554.018 95.96 553.842 96 553.634 96H551.426L564.302 79.116ZM568.334 91.92C568.334 92.576 568.222 93.168 567.998 93.696C567.782 94.224 567.49 94.676 567.122 95.052C566.754 95.42 566.326 95.708 565.838 95.916C565.35 96.116 564.842 96.216 564.314 96.216C563.738 96.216 563.206 96.116 562.718 95.916C562.23 95.708 561.806 95.42 561.446 95.052C561.094 94.676 560.818 94.224 560.618 93.696C560.418 93.168 560.318 92.576 560.318 91.92C560.318 91.248 560.418 90.64 560.618 90.096C560.818 89.552 561.094 89.092 561.446 88.716C561.806 88.34 562.23 88.052 562.718 87.852C563.206 87.644 563.738 87.54 564.314 87.54C564.89 87.54 565.422 87.644 565.91 87.852C566.406 88.052 566.83 88.34 567.182 88.716C567.542 89.092 567.822 89.552 568.022 90.096C568.23 90.64 568.334 91.248 568.334 91.92ZM566.042 91.92C566.042 91.456 565.998 91.068 565.91 90.756C565.822 90.444 565.698 90.192 565.538 90C565.386 89.808 565.202 89.672 564.986 89.592C564.778 89.504 564.554 89.46 564.314 89.46C564.074 89.46 563.85 89.504 563.642 89.592C563.434 89.672 563.254 89.808 563.102 90C562.95 90.192 562.83 90.444 562.742 90.756C562.662 91.068 562.622 91.456 562.622 91.92C562.622 92.368 562.662 92.744 562.742 93.048C562.83 93.352 562.95 93.596 563.102 93.78C563.254 93.964 563.434 94.096 563.642 94.176C563.85 94.256 564.074 94.296 564.314 94.296C564.554 94.296 564.778 94.256 564.986 94.176C565.202 94.096 565.386 93.964 565.538 93.78C565.698 93.596 565.822 93.352 565.91 93.048C565.998 92.744 566.042 92.368 566.042 91.92Z" fill="#459FBF"/>
<defs>
<filter id="filter0_ii" x="0" y="34" width="540" height="549.921" filterUnits="userSpaceOnUse" color-interpolation-filters="sRGB">
<feFlood flood-opacity="0" result="BackgroundImageFix"/>
<feBlend mode="normal" in="SourceGraphic" in2="BackgroundImageFix" result="shape"/>
<feColorMatrix in="SourceAlpha" type="matrix" values="0 0 0 0 0 0 0 0 0 0 0 0 0 0 0 0 0 0 127 0" result="hardAlpha"/>
<feOffset dy="4"/>
<feGaussianBlur stdDeviation="4"/>
<feComposite in2="hardAlpha" operator="arithmetic" k2="-1" k3="1"/>
<feColorMatrix type="matrix" values="0 0 0 0 0.683333 0 0 0 0 0.683333 0 0 0 0 0.683333 0 0 0 0.25 0"/>
<feBlend mode="normal" in2="shape" result="effect1_innerShadow"/>
<feColorMatrix in="SourceAlpha" type="matrix" values="0 0 0 0 0 0 0 0 0 0 0 0 0 0 0 0 0 0 127 0" result="hardAlpha"/>
<feMorphology radius="16" operator="erode" in="SourceAlpha" result="effect2_innerShadow"/>
<feOffset dy="4"/>
<feGaussianBlur stdDeviation="8"/>
<feComposite in2="hardAlpha" operator="arithmetic" k2="-1" k3="1"/>
<feColorMatrix type="matrix" values="0 0 0 0 0.235294 0 0 0 0 0.572549 0 0 0 0 0.694118 0 0 0 0.15 0"/>
<feBlend mode="normal" in2="effect1_innerShadow" result="effect2_innerShadow"/>
</filter>
<filter id="filter1_dd" x="33" y="79.2256" width="240" height="455.549" filterUnits="userSpaceOnUse" color-interpolation-filters="sRGB">
<feFlood flood-opacity="0" result="BackgroundImageFix"/>
<feColorMatrix in="SourceAlpha" type="matrix" values="0 0 0 0 0 0 0 0 0 0 0 0 0 0 0 0 0 0 127 0"/>
<feOffset dy="4"/>
<feGaussianBlur stdDeviation="8"/>
<feColorMatrix type="matrix" values="0 0 0 0 0.683333 0 0 0 0 0.683333 0 0 0 0 0.683333 0 0 0 0.25 0"/>
<feBlend mode="normal" in2="BackgroundImageFix" result="effect1_dropShadow"/>
<feColorMatrix in="SourceAlpha" type="matrix" values="0 0 0 0 0 0 0 0 0 0 0 0 0 0 0 0 0 0 127 0"/>
<feOffset dy="-4"/>
<feGaussianBlur stdDeviation="8"/>
<feColorMatrix type="matrix" values="0 0 0 0 0.780392 0 0 0 0 0.721569 0 0 0 0 0.133333 0 0 0 1 0"/>
<feBlend mode="normal" in2="effect1_dropShadow" result="effect2_dropShadow"/>
<feBlend mode="normal" in="SourceGraphic" in2="effect2_dropShadow" result="shape"/>
</filter>
<filter id="filter2_dd" x="266" y="79.2251" width="240" height="294.601" filterUnits="userSpaceOnUse" color-interpolation-filters="sRGB">
<feFlood flood-opacity="0" result="BackgroundImageFix"/>
<feColorMatrix in="SourceAlpha" type="matrix" values="0 0 0 0 0 0 0 0 0 0 0 0 0 0 0 0 0 0 127 0"/>
<feOffset dy="4"/>
<feGaussianBlur stdDeviation="8"/>
<feColorMatrix type="matrix" values="0 0 0 0 0.683333 0 0 0 0 0.683333 0 0 0 0 0.683333 0 0 0 0.25 0"/>
<feBlend mode="normal" in2="BackgroundImageFix" result="effect1_dropShadow"/>
<feColorMatrix in="SourceAlpha" type="matrix" values="0 0 0 0 0 0 0 0 0 0 0 0 0 0 0 0 0 0 127 0"/>
<feOffset dy="-4"/>
<feGaussianBlur stdDeviation="8"/>
<feColorMatrix type="matrix" values="0 0 0 0 0.137255 0 0 0 0 0.560784 0 0 0 0 0.756863 0 0 0 1 0"/>
<feBlend mode="normal" in2="effect1_dropShadow" result="effect2_dropShadow"/>
<feBlend mode="normal" in="SourceGraphic" in2="effect2_dropShadow" result="shape"/>
</filter>
<filter id="filter3_dd" x="266" y="319.83" width="221.258" height="214.946" filterUnits="userSpaceOnUse" color-interpolation-filters="sRGB">
<feFlood flood-opacity="0" result="BackgroundImageFix"/>
<feColorMatrix in="SourceAlpha" type="matrix" values="0 0 0 0 0 0 0 0 0 0 0 0 0 0 0 0 0 0 127 0"/>
<feOffset dy="4"/>
<feGaussianBlur stdDeviation="8"/>
<feColorMatrix type="matrix" values="0 0 0 0 0.683333 0 0 0 0 0.683333 0 0 0 0 0.683333 0 0 0 0.25 0"/>
<feBlend mode="normal" in2="BackgroundImageFix" result="effect1_dropShadow"/>
<feColorMatrix in="SourceAlpha" type="matrix" values="0 0 0 0 0 0 0 0 0 0 0 0 0 0 0 0 0 0 127 0"/>
<feOffset dy="-4"/>
<feGaussianBlur stdDeviation="8"/>
<feColorMatrix type="matrix" values="0 0 0 0 0.803922 0 0 0 0 0.12549 0 0 0 0 0.12549 0 0 0 1 0"/>
<feBlend mode="normal" in2="effect1_dropShadow" result="effect2_dropShadow"/>
<feBlend mode="normal" in="SourceGraphic" in2="effect2_dropShadow" result="shape"/>
</filter>
<filter id="filter4_ii" x="386" y="0" width="223" height="229.197" filterUnits="userSpaceOnUse" color-interpolation-filters="sRGB">
<feFlood flood-opacity="0" result="BackgroundImageFix"/>
<feBlend mode="normal" in="SourceGraphic" in2="BackgroundImageFix" result="shape"/>
<feColorMatrix in="SourceAlpha" type="matrix" values="0 0 0 0 0 0 0 0 0 0 0 0 0 0 0 0 0 0 127 0" result="hardAlpha"/>
<feOffset dy="4"/>
<feGaussianBlur stdDeviation="4"/>
<feComposite in2="hardAlpha" operator="arithmetic" k2="-1" k3="1"/>
<feColorMatrix type="matrix" values="0 0 0 0 0.683333 0 0 0 0 0.683333 0 0 0 0 0.683333 0 0 0 0.25 0"/>
<feBlend mode="normal" in2="shape" result="effect1_innerShadow"/>
<feColorMatrix in="SourceAlpha" type="matrix" values="0 0 0 0 0 0 0 0 0 0 0 0 0 0 0 0 0 0 127 0" result="hardAlpha"/>
<feMorphology radius="8" operator="erode" in="SourceAlpha" result="effect2_innerShadow"/>
<feOffset dy="4"/>
<feGaussianBlur stdDeviation="8"/>
<feComposite in2="hardAlpha" operator="arithmetic" k2="-1" k3="1"/>
<feColorMatrix type="matrix" values="0 0 0 0 0.235294 0 0 0 0 0.572549 0 0 0 0 0.694118 0 0 0 0.15 0"/>
<feBlend mode="normal" in2="effect1_innerShadow" result="effect2_innerShadow"/>
</filter>
</defs>
</svg>
