<svg width="124" height="124" viewBox="0 0 124 124" fill="none" xmlns="http://www.w3.org/2000/svg">
<path fill-rule="evenodd" clip-rule="evenodd" d="M77.7412 0.238281V30.7578H107.741L77.7412 0.238281Z" fill="#3C92B1"/>
<path fill-rule="evenodd" clip-rule="evenodd" d="M31 69.75H38.4788V85.1647H31V69.75Z" fill="black"/>
<path fill-rule="evenodd" clip-rule="evenodd" d="M62 69.75H69.3857V84.8857H62V69.75Z" fill="black"/>
<path fill-rule="evenodd" clip-rule="evenodd" d="M69.2692 39.4615V0.533203H15.8252V123.518H108.019V39.4615H69.2692ZM39.0054 85.4887V93.3084H23.1102V61.7892L39.1062 61.8667V69.392H46.7322L46.8562 85.4964H39.0054V85.4887ZM77.5927 85.6127H69.8737V93.2387H61.7594V85.6127H54.0559V69.6322H61.7594V61.7582H69.8737V69.6322H77.5927V85.6127ZM100.874 69.8725H93.1237V85.1322H100.874V92.9985H92.6432V85.4345H85.0172V69.4152H92.6432V61.7737H100.874V69.8725Z" fill="white"/>
</svg>
