<svg width="149" height="158" viewBox="0 0 149 158" fill="none" xmlns="http://www.w3.org/2000/svg">
<g id="Group 58">
<g id="name">
<g id="Frame" clip-path="url(#clip0)">
<g id="Group">
<path id="Vector" d="M19.9115 151.497C19.9115 152.477 19.7563 153.355 19.4977 154.181C19.1874 155.006 18.6703 155.677 17.9462 156.245C17.2221 156.813 16.1878 157.277 14.8948 157.587C13.6019 157.897 11.9469 158.052 9.9816 158.052C8.01631 158.052 6.36133 157.897 5.06838 157.587C3.72371 157.226 2.68934 156.761 1.96529 156.194C1.24124 155.626 0.724054 154.955 0.413745 154.129C0.155154 153.355 0 152.477 0 151.497V140.555C0 139.574 0.155154 138.697 0.413745 137.871C0.724054 137.097 1.18952 136.374 1.96529 135.806C2.68934 135.239 3.72371 134.774 5.01666 134.465C6.36133 134.155 7.96459 134 9.9816 134C11.9469 134 13.6019 134.155 14.8948 134.465C16.1878 134.774 17.2221 135.239 17.9462 135.806C18.6703 136.374 19.1874 137.045 19.4977 137.871C19.8081 138.697 19.9115 139.574 19.9115 140.555V151.497ZM7.29226 150.31C7.29226 150.723 7.44741 151.084 7.75772 151.394C8.06803 151.703 8.79209 151.806 9.9816 151.806C11.1194 151.806 11.8952 151.652 12.2055 151.394C12.5158 151.084 12.6709 150.774 12.6709 150.31V141.69C12.6709 141.277 12.5158 140.916 12.2055 140.658C11.8952 140.4 11.1711 140.245 9.9816 140.245C8.8438 140.245 8.06803 140.4 7.75772 140.658C7.44741 140.916 7.29226 141.277 7.29226 141.69V150.31Z" fill="white"/>
<path id="Vector_2" d="M34.0824 156.348C34.0824 156.761 33.979 157.071 33.8238 157.226C33.617 157.432 33.3584 157.484 32.9446 157.484H28.0831C27.6694 157.484 27.3591 157.381 27.2039 157.226C26.997 157.019 26.9453 156.761 26.9453 156.348V152.942C26.9453 151.961 27.0487 151.239 27.2039 150.723C27.3591 150.206 27.7211 149.639 28.1865 149.019L30.7725 145.51L28.1865 142C27.6694 141.329 27.3591 140.761 27.2039 140.297C27.0487 139.781 26.9453 139.058 26.9453 138.077V135.652C26.9453 135.239 27.0487 134.929 27.2039 134.774C27.4108 134.568 27.6694 134.516 28.0831 134.516H32.9963C33.4101 134.516 33.7204 134.619 33.8755 134.774C34.0824 134.929 34.1341 135.239 34.1341 135.652V137.871C34.1341 138.077 34.1341 138.284 34.1859 138.542C34.1859 138.8 34.2893 139.006 34.4444 139.213L35.8408 141.226C35.9443 141.381 36.0477 141.535 36.2029 141.639C36.3063 141.742 36.4615 141.794 36.6166 141.794H36.9786C37.1338 141.794 37.2889 141.742 37.3924 141.639C37.4958 141.535 37.5993 141.432 37.7544 141.226L39.2025 139.213C39.3577 139.006 39.4611 138.8 39.4611 138.542C39.4611 138.284 39.5128 138.077 39.5128 137.871V135.652C39.5128 135.239 39.6163 134.929 39.7714 134.774C39.9783 134.568 40.2369 134.516 40.6506 134.516H45.5121C45.9259 134.516 46.2362 134.619 46.3913 134.774C46.5982 134.981 46.6499 135.239 46.6499 135.652V138.129C46.6499 139.11 46.5465 139.832 46.3913 140.348C46.2362 140.865 45.8742 141.432 45.4087 142.052L42.8228 145.561L45.4087 149.019C45.9259 149.69 46.2362 150.258 46.3913 150.723C46.5465 151.239 46.6499 151.961 46.6499 152.942V156.348C46.6499 156.761 46.5465 157.071 46.3913 157.226C46.1845 157.432 45.9259 157.484 45.5121 157.484H40.6506C40.2369 157.484 39.9266 157.381 39.7714 157.226C39.5645 157.019 39.5128 156.761 39.5128 156.348V153.2C39.5128 152.994 39.5128 152.787 39.4611 152.529C39.4611 152.271 39.3577 152.064 39.2025 151.858L37.8061 149.845C37.7027 149.639 37.5475 149.535 37.4441 149.432C37.3407 149.329 37.1855 149.329 37.0304 149.329H36.5649C36.4097 149.329 36.2546 149.381 36.1511 149.432C36.0477 149.535 35.9443 149.639 35.7891 149.845L34.341 151.858C34.2376 152.064 34.1341 152.271 34.1341 152.529C34.1341 152.787 34.0824 152.994 34.0824 153.2V156.348Z" fill="white"/>
<path id="Vector_3" d="M65.1135 157.535H59.9417C59.5279 157.535 59.2176 157.432 59.0625 157.277C58.8556 157.071 58.8039 156.813 58.8039 156.4V152.323L53.8906 145.768C53.3735 145.097 53.0632 144.529 52.908 144.064C52.7529 143.548 52.6494 142.826 52.6494 141.845V135.652C52.6494 135.239 52.7529 134.929 52.908 134.774C53.1149 134.568 53.3735 134.516 53.7872 134.516H58.7004C59.1142 134.516 59.4245 134.619 59.5796 134.774C59.7865 134.981 59.8382 135.239 59.8382 135.652V140.916C59.8382 141.123 59.8382 141.329 59.89 141.587C59.89 141.845 59.9934 142.052 60.1485 142.258L61.6484 144.581C61.7518 144.787 61.8552 144.89 62.0104 144.994C62.1138 145.097 62.269 145.097 62.4241 145.097H62.7345C62.8896 145.097 63.0448 145.045 63.1482 144.994C63.2516 144.89 63.3551 144.787 63.5102 144.581L65.01 142.258C65.1652 142.052 65.2686 141.845 65.2686 141.587C65.2686 141.329 65.3204 141.123 65.3204 140.916V135.652C65.3204 135.239 65.4238 134.929 65.5789 134.774C65.7858 134.568 66.0444 134.516 66.4582 134.516H71.2162C71.63 134.516 71.9403 134.619 72.0954 134.774C72.3023 134.981 72.354 135.239 72.354 135.652V141.794C72.354 142.774 72.2506 143.497 72.0954 144.013C71.9403 144.529 71.5782 145.097 71.1128 145.716L66.2513 152.323V156.4C66.2513 156.813 66.1478 157.123 65.9927 157.277C65.7858 157.432 65.4755 157.535 65.1135 157.535Z" fill="white"/>
<path id="Vector_4" d="M96.8163 157.535H86.7312C84.0419 157.535 82.0766 157.019 80.7836 155.935C79.4907 154.852 78.8184 153.252 78.8184 151.032V141.019C78.8184 138.8 79.439 137.148 80.7836 136.116C82.0766 135.032 84.0419 134.516 86.7312 134.516H94.7475C95.1613 134.516 95.4716 134.619 95.6267 134.774C95.8336 134.981 95.8853 135.239 95.8853 135.652V139.523C95.8853 139.935 95.7819 140.245 95.6267 140.4C95.4199 140.606 95.1613 140.658 94.7475 140.658H88.0759C87.4036 140.658 86.9381 140.813 86.5761 141.071C86.2658 141.329 86.1106 141.742 86.1106 142.258V149.897C86.1106 150.413 86.214 150.826 86.4726 151.084C86.7312 151.342 87.0933 151.445 87.5587 151.445H90.6618V146.439C90.6618 146.026 90.7652 145.716 90.9204 145.561C91.1273 145.355 91.3859 145.303 91.7996 145.303H96.7645C97.1783 145.303 97.4886 145.406 97.6438 145.561C97.8506 145.768 97.9023 146.026 97.9023 146.439V156.348C97.9023 156.761 97.7989 157.071 97.6438 157.226C97.5403 157.432 97.23 157.535 96.8163 157.535Z" fill="white"/>
<path id="Vector_5" d="M121.123 157.535H106.229C105.815 157.535 105.505 157.432 105.349 157.277C105.143 157.071 105.091 156.813 105.091 156.4V135.652C105.091 135.239 105.194 134.929 105.349 134.774C105.556 134.568 105.815 134.516 106.229 134.516H121.123C121.537 134.516 121.847 134.619 122.003 134.774C122.158 134.981 122.261 135.239 122.261 135.652V139.419C122.261 139.832 122.158 140.142 122.003 140.297C121.796 140.503 121.537 140.555 121.123 140.555H112.28V143.032H118.538C118.951 143.032 119.262 143.135 119.417 143.29C119.624 143.497 119.675 143.755 119.675 144.168V147.574C119.675 147.987 119.572 148.297 119.417 148.452C119.262 148.606 118.951 148.71 118.538 148.71H112.28V151.445H121.123C121.537 151.445 121.847 151.548 122.003 151.703C122.158 151.91 122.261 152.168 122.261 152.581V156.348C122.261 156.761 122.158 157.071 122.003 157.226C121.847 157.432 121.537 157.535 121.123 157.535Z" fill="white"/>
<path id="Vector_6" d="M135.243 157.535H130.433C130.019 157.535 129.709 157.432 129.554 157.277C129.347 157.071 129.295 156.813 129.295 156.4V135.652C129.295 135.239 129.398 134.929 129.554 134.774C129.76 134.568 130.019 134.516 130.433 134.516H133.743C134.156 134.516 134.518 134.568 134.777 134.723C135.087 134.826 135.346 135.084 135.605 135.394L141.811 142.516V135.652C141.811 135.239 141.914 134.929 142.069 134.774C142.276 134.568 142.535 134.516 142.949 134.516H147.758C148.172 134.516 148.482 134.619 148.637 134.774C148.844 134.981 148.896 135.239 148.896 135.652V156.4C148.896 156.813 148.793 157.123 148.637 157.277C148.431 157.484 148.172 157.535 147.758 157.535H142.949C142.535 157.535 142.224 157.432 142.069 157.277C141.862 157.071 141.811 156.813 141.811 156.4V152.477L136.329 145.871V156.452C136.329 156.864 136.225 157.174 136.07 157.329C135.967 157.432 135.656 157.535 135.243 157.535Z" fill="white"/>
</g>
</g>
</g>
<g id="logo" clip-path="url(#clip1)">
<g id="Group_2">
<g id="Group_3">
<g id="Group_4">
<g id="Group_5">
<path id="Vector_7" d="M51.9869 67.726L52.4571 40.5165L29.8359 26.5061L29 80.9791L74.138 109L74.6082 81.7364L51.9869 67.726Z" fill="#A6A6A6"/>
</g>
<g id="Group_6">
<path id="Vector_8" d="M98.0135 41.2739L121 28.0208L75.8625 0L53.4502 13.0908L98.0135 41.2739Z" fill="#F1F1F1"/>
</g>
<g id="Group_7">
<path id="Vector_9" d="M98.0128 41.2743L97.5948 68.4838L74.6079 81.7369L74.1377 109L120.164 82.4942L121 28.0212L98.0128 41.2743Z" fill="white"/>
</g>
</g>
<g id="Group_8">
<path id="Vector_10" d="M71.7336 29.3189L56.7399 37.7576C56.3219 37.974 55.9562 38.0822 55.6428 38.0822C55.2771 38.0822 54.9636 37.974 54.5457 37.8117L49.2691 34.9988C48.0153 34.3496 47.1271 33.7546 46.6047 33.1596C46.03 32.5645 45.7166 32.0236 45.6643 31.4827C45.6121 30.9417 45.7166 30.4008 46.0823 29.8598C46.3957 29.3189 46.8659 28.7779 47.3884 28.237L50.5229 24.8831C50.7842 24.6127 50.8886 24.3963 50.8364 24.234C50.7842 24.0717 50.5752 23.8554 50.2095 23.639C49.896 23.4226 49.5826 23.3685 49.3213 23.3685C49.0601 23.3685 48.7467 23.4767 48.4332 23.6931L41.0147 27.8583C40.5968 28.1288 40.1788 28.237 39.7609 28.237C39.3952 28.237 38.925 28.1288 38.507 27.8583L34.2753 25.5864C33.8052 25.3159 33.5439 25.0995 33.5439 24.8831C33.5439 24.6668 33.7529 24.3963 34.1709 24.1799L44.515 18.2296C46.5002 17.0936 48.5377 16.4985 50.6274 16.4985C52.6649 16.4985 54.5979 17.0936 56.3742 18.2296L59.4043 20.1769C60.9715 21.2047 61.6507 22.2325 61.5462 23.2603C61.4417 24.2881 60.7626 25.4241 59.6655 26.5601L56.5309 29.8598C56.2697 30.0762 56.1652 30.2926 56.1129 30.4008C56.1129 30.509 56.2697 30.6712 56.5831 30.8876L57.21 31.2663L66.4571 25.965C66.875 25.7487 67.2407 25.6405 67.6064 25.6405C67.9721 25.6405 68.2856 25.7487 68.6513 25.965L71.8903 28.0747C72.256 28.2911 72.4128 28.5075 72.3605 28.7238C72.3605 28.8861 72.1516 29.1025 71.7336 29.3189Z" fill="#459FBF"/>
</g>
</g>
</g>
</g>
</g>
<defs>
<clipPath id="clip0">
<rect width="149" height="24" fill="white" transform="translate(0 134)"/>
</clipPath>
<clipPath id="clip1">
<rect width="92" height="109" fill="white" transform="translate(29)"/>
</clipPath>
</defs>
</svg>
