<svg width="200" height="47" viewBox="0 0 200 47" fill="none" xmlns="http://www.w3.org/2000/svg">
<g clip-path="url(#clip0)">
<path d="M9.99432 29.2029L10.1988 17.4704L0.36343 11.4292L0 34.9175L19.6252 46.9999L19.8296 35.2441L9.99432 29.2029Z" fill="#A6A6A6"/>
<path d="M30.0062 17.797L40.0005 12.0824L20.3753 0L10.6309 5.64466L30.0062 17.797Z" fill="#F1F1F1"/>
<path d="M30.0055 17.7972L29.8237 29.5297L19.8294 35.2443L19.625 47.0001L39.6364 35.5709L39.9998 12.0825L30.0055 17.7972Z" fill="white"/>
<path d="M18.5798 12.6423L12.0608 16.281C11.8791 16.3743 11.7201 16.421 11.5838 16.421C11.4248 16.421 11.2885 16.3743 11.1068 16.3043L8.81261 15.0914C8.26747 14.8115 7.88132 14.555 7.65418 14.2984C7.40432 14.0418 7.26803 13.8085 7.24532 13.5753C7.22261 13.342 7.26803 13.1088 7.42703 12.8755C7.56332 12.6423 7.76775 12.409 7.99489 12.1758L9.35776 10.7296C9.47133 10.613 9.51676 10.5197 9.49404 10.4497C9.47133 10.3798 9.38047 10.2865 9.22147 10.1932C9.08518 10.0999 8.9489 10.0765 8.83533 10.0765C8.72175 10.0765 8.58547 10.1232 8.44918 10.2165L5.22374 12.0125C5.04203 12.1291 4.86031 12.1758 4.6786 12.1758C4.5196 12.1758 4.31517 12.1291 4.13345 12.0125L2.29359 11.0329C2.08916 10.9162 1.97559 10.8229 1.97559 10.7296C1.97559 10.6363 2.06644 10.5197 2.24816 10.4264L6.7456 7.86066C7.60875 7.37083 8.49461 7.11426 9.40318 7.11426C10.289 7.11426 11.1295 7.37083 11.9018 7.86066L13.2192 8.70036C13.9006 9.14354 14.1959 9.58671 14.1505 10.0299C14.1051 10.4731 13.8098 10.9629 13.3328 11.4527L11.9699 12.8755C11.8563 12.9688 11.8109 13.0621 11.7882 13.1088C11.7882 13.1554 11.8563 13.2254 11.9926 13.3187L12.2652 13.482L16.2856 11.1961C16.4674 11.1028 16.6264 11.0562 16.7854 11.0562C16.9444 11.0562 17.0806 11.1028 17.2396 11.1961L18.6479 12.1058C18.8069 12.1991 18.8751 12.2924 18.8524 12.3857C18.8524 12.4557 18.7615 12.549 18.5798 12.6423Z" fill="#459FBF"/>
</g>
<g clip-path="url(#clip1)">
<path d="M70.9115 29.4968C70.9115 30.4774 70.7563 31.3548 70.4977 32.1806C70.1874 33.0065 69.6703 33.6774 68.9462 34.2452C68.2221 34.8129 67.1878 35.2774 65.8948 35.5871C64.6019 35.8968 62.9469 36.0516 60.9816 36.0516C59.0163 36.0516 57.3613 35.8968 56.0684 35.5871C54.7237 35.2258 53.6893 34.7613 52.9653 34.1936C52.2412 33.6258 51.7241 32.9548 51.4137 32.129C51.1552 31.3548 51 30.4774 51 29.4968V18.5548C51 17.5742 51.1552 16.6968 51.4137 15.871C51.7241 15.0968 52.1895 14.3742 52.9653 13.8065C53.6893 13.2387 54.7237 12.7742 56.0167 12.4645C57.3613 12.1548 58.9646 12 60.9816 12C62.9469 12 64.6019 12.1548 65.8948 12.4645C67.1878 12.7742 68.2221 13.2387 68.9462 13.8065C69.6703 14.3742 70.1874 15.0452 70.4977 15.871C70.8081 16.6968 70.9115 17.5742 70.9115 18.5548V29.4968ZM58.2923 28.3097C58.2923 28.7226 58.4474 29.0839 58.7577 29.3936C59.068 29.7032 59.7921 29.8065 60.9816 29.8065C62.1194 29.8065 62.8952 29.6516 63.2055 29.3936C63.5158 29.0839 63.6709 28.7742 63.6709 28.3097V19.6903C63.6709 19.2774 63.5158 18.9161 63.2055 18.6581C62.8952 18.4 62.1711 18.2452 60.9816 18.2452C59.8438 18.2452 59.068 18.4 58.7577 18.6581C58.4474 18.9161 58.2923 19.2774 58.2923 19.6903V28.3097Z" fill="white"/>
<path d="M85.0824 34.3484C85.0824 34.7613 84.979 35.071 84.8238 35.2258C84.617 35.4322 84.3584 35.4839 83.9446 35.4839H79.0831C78.6694 35.4839 78.3591 35.3806 78.2039 35.2258C77.997 35.0193 77.9453 34.7613 77.9453 34.3484V30.9419C77.9453 29.9613 78.0487 29.2387 78.2039 28.7226C78.3591 28.2064 78.7211 27.6387 79.1865 27.0193L81.7725 23.5097L79.1865 20C78.6694 19.329 78.3591 18.7613 78.2039 18.2968C78.0487 17.7806 77.9453 17.058 77.9453 16.0774V13.6516C77.9453 13.2387 78.0487 12.929 78.2039 12.7742C78.4108 12.5677 78.6694 12.5161 79.0831 12.5161H83.9963C84.4101 12.5161 84.7204 12.6193 84.8755 12.7742C85.0824 12.929 85.1341 13.2387 85.1341 13.6516V15.871C85.1341 16.0774 85.1341 16.2839 85.1859 16.5419C85.1859 16.8 85.2893 17.0064 85.4444 17.2129L86.8408 19.2258C86.9443 19.3806 87.0477 19.5355 87.2029 19.6387C87.3063 19.7419 87.4615 19.7935 87.6166 19.7935H87.9786C88.1338 19.7935 88.2889 19.7419 88.3924 19.6387C88.4958 19.5355 88.5993 19.4322 88.7544 19.2258L90.2025 17.2129C90.3577 17.0064 90.4611 16.8 90.4611 16.5419C90.4611 16.2839 90.5128 16.0774 90.5128 15.871V13.6516C90.5128 13.2387 90.6163 12.929 90.7714 12.7742C90.9783 12.5677 91.2369 12.5161 91.6506 12.5161H96.5121C96.9259 12.5161 97.2362 12.6193 97.3913 12.7742C97.5982 12.9806 97.6499 13.2387 97.6499 13.6516V16.129C97.6499 17.1097 97.5465 17.8322 97.3913 18.3484C97.2362 18.8645 96.8742 19.4322 96.4087 20.0516L93.8228 23.5613L96.4087 27.0193C96.9259 27.6903 97.2362 28.258 97.3913 28.7226C97.5465 29.2387 97.6499 29.9613 97.6499 30.9419V34.3484C97.6499 34.7613 97.5465 35.071 97.3913 35.2258C97.1845 35.4322 96.9259 35.4839 96.5121 35.4839H91.6506C91.2369 35.4839 90.9266 35.3806 90.7714 35.2258C90.5645 35.0193 90.5128 34.7613 90.5128 34.3484V31.2C90.5128 30.9935 90.5128 30.7871 90.4611 30.529C90.4611 30.271 90.3577 30.0645 90.2025 29.858L88.8061 27.8451C88.7027 27.6387 88.5475 27.5355 88.4441 27.4322C88.3407 27.329 88.1855 27.329 88.0304 27.329H87.5649C87.4097 27.329 87.2546 27.3806 87.1511 27.4322C87.0477 27.5355 86.9443 27.6387 86.7891 27.8451L85.341 29.858C85.2376 30.0645 85.1341 30.271 85.1341 30.529C85.1341 30.7871 85.0824 30.9935 85.0824 31.2V34.3484Z" fill="white"/>
<path d="M116.113 35.5355H110.942C110.528 35.5355 110.218 35.4322 110.062 35.2774C109.856 35.0709 109.804 34.8129 109.804 34.4V30.3226L104.891 23.7677C104.373 23.0968 104.063 22.529 103.908 22.0645C103.753 21.5484 103.649 20.8258 103.649 19.8451V13.6516C103.649 13.2387 103.753 12.929 103.908 12.7742C104.115 12.5677 104.373 12.5161 104.787 12.5161H109.7C110.114 12.5161 110.424 12.6193 110.58 12.7742C110.787 12.9806 110.838 13.2387 110.838 13.6516V18.9161C110.838 19.1226 110.838 19.329 110.89 19.5871C110.89 19.8451 110.993 20.0516 111.149 20.258L112.648 22.5806C112.752 22.7871 112.855 22.8903 113.01 22.9935C113.114 23.0968 113.269 23.0968 113.424 23.0968H113.734C113.89 23.0968 114.045 23.0451 114.148 22.9935C114.252 22.8903 114.355 22.7871 114.51 22.5806L116.01 20.258C116.165 20.0516 116.269 19.8451 116.269 19.5871C116.269 19.329 116.32 19.1226 116.32 18.9161V13.6516C116.32 13.2387 116.424 12.929 116.579 12.7742C116.786 12.5677 117.044 12.5161 117.458 12.5161H122.216C122.63 12.5161 122.94 12.6193 123.095 12.7742C123.302 12.9806 123.354 13.2387 123.354 13.6516V19.7935C123.354 20.7742 123.251 21.4968 123.095 22.0129C122.94 22.529 122.578 23.0968 122.113 23.7161L117.251 30.3226V34.4C117.251 34.8129 117.148 35.1226 116.993 35.2774C116.786 35.4322 116.476 35.5355 116.113 35.5355Z" fill="white"/>
<path d="M147.816 35.5355H137.731C135.042 35.5355 133.077 35.0193 131.784 33.9355C130.491 32.8516 129.818 31.2516 129.818 29.0322V19.0193C129.818 16.8 130.439 15.1484 131.784 14.1161C133.077 13.0322 135.042 12.5161 137.731 12.5161H145.748C146.161 12.5161 146.472 12.6193 146.627 12.7742C146.834 12.9806 146.885 13.2387 146.885 13.6516V17.5226C146.885 17.9355 146.782 18.2451 146.627 18.4C146.42 18.6064 146.161 18.658 145.748 18.658H139.076C138.404 18.658 137.938 18.8129 137.576 19.071C137.266 19.329 137.111 19.7419 137.111 20.258V27.8968C137.111 28.4129 137.214 28.8258 137.473 29.0839C137.731 29.3419 138.093 29.4451 138.559 29.4451H141.662V24.4387C141.662 24.0258 141.765 23.7161 141.92 23.5613C142.127 23.3548 142.386 23.3032 142.8 23.3032H147.765C148.178 23.3032 148.489 23.4064 148.644 23.5613C148.851 23.7677 148.902 24.0258 148.902 24.4387V34.3484C148.902 34.7613 148.799 35.0709 148.644 35.2258C148.54 35.4322 148.23 35.5355 147.816 35.5355Z" fill="white"/>
<path d="M172.123 35.5355H157.229C156.815 35.5355 156.505 35.4322 156.349 35.2774C156.143 35.0709 156.091 34.8129 156.091 34.4V13.6516C156.091 13.2387 156.194 12.929 156.349 12.7742C156.556 12.5677 156.815 12.5161 157.229 12.5161H172.123C172.537 12.5161 172.847 12.6193 173.003 12.7742C173.158 12.9806 173.261 13.2387 173.261 13.6516V17.4193C173.261 17.8322 173.158 18.1419 173.003 18.2968C172.796 18.5032 172.537 18.5548 172.123 18.5548H163.28V21.0322H169.538C169.951 21.0322 170.262 21.1355 170.417 21.2903C170.624 21.4968 170.675 21.7548 170.675 22.1677V25.5742C170.675 25.9871 170.572 26.2968 170.417 26.4516C170.262 26.6064 169.951 26.7097 169.538 26.7097H163.28V29.4451H172.123C172.537 29.4451 172.847 29.5484 173.003 29.7032C173.158 29.9097 173.261 30.1677 173.261 30.5806V34.3484C173.261 34.7613 173.158 35.0709 173.003 35.2258C172.847 35.4322 172.537 35.5355 172.123 35.5355Z" fill="white"/>
<path d="M186.243 35.5355H181.433C181.019 35.5355 180.709 35.4322 180.554 35.2774C180.347 35.0709 180.295 34.8129 180.295 34.4V13.6516C180.295 13.2387 180.398 12.929 180.554 12.7742C180.76 12.5677 181.019 12.5161 181.433 12.5161H184.743C185.156 12.5161 185.518 12.5677 185.777 12.7226C186.087 12.8258 186.346 13.0839 186.605 13.3935L192.811 20.5161V13.6516C192.811 13.2387 192.914 12.929 193.069 12.7742C193.276 12.5677 193.535 12.5161 193.949 12.5161H198.758C199.172 12.5161 199.482 12.6193 199.637 12.7742C199.844 12.9806 199.896 13.2387 199.896 13.6516V34.4C199.896 34.8129 199.793 35.1226 199.637 35.2774C199.431 35.4839 199.172 35.5355 198.758 35.5355H193.949C193.535 35.5355 193.224 35.4322 193.069 35.2774C192.862 35.0709 192.811 34.8129 192.811 34.4V30.4774L187.329 23.871V34.4516C187.329 34.8645 187.225 35.1742 187.07 35.329C186.967 35.4322 186.656 35.5355 186.243 35.5355Z" fill="white"/>
</g>
<defs>
<clipPath id="clip0">
<rect width="40" height="47" fill="white"/>
</clipPath>
<clipPath id="clip1">
<rect width="149" height="24" fill="white" transform="translate(51 12)"/>
</clipPath>
</defs>
</svg>
