<svg width="44" height="44" viewBox="0 0 44 44" fill="none" xmlns="http://www.w3.org/2000/svg">
<path d="M22 33V30.25C23.0632 30.1581 24.0598 29.694 24.8144 28.9394C25.569 28.1848 26.0331 27.1882 26.125 26.125H28.875C28.7861 27.9196 28.0333 29.6171 26.7627 30.8877C25.4921 32.1583 23.7946 32.9111 22 33Z" fill="white"/>
<path d="M22 38.4998C18.7192 38.4958 15.5739 37.1907 13.254 34.8709C10.9341 32.551 9.629 29.4056 9.625 26.1248C9.699 23.7127 10.4076 21.3627 11.6793 19.3117L20.8354 4.7257C20.9676 4.54009 21.1423 4.38877 21.3449 4.28437C21.5475 4.17996 21.7721 4.12549 22 4.12549C22.2279 4.12549 22.4525 4.17996 22.6551 4.28437C22.8577 4.38877 23.0324 4.54009 23.1646 4.7257L32.2809 19.2402C33.5739 21.3102 34.2964 23.6854 34.375 26.1248C34.371 29.4056 33.0659 32.551 30.746 34.8709C28.4261 37.1907 25.2808 38.4958 22 38.4998ZM22 8.04083L14.0498 20.7018C13.0254 22.3312 12.4478 24.2015 12.375 26.1248C12.375 28.6775 13.3891 31.1257 15.1941 32.9307C16.9991 34.7358 19.4473 35.7498 22 35.7498C24.5527 35.7498 27.0009 34.7358 28.8059 32.9307C30.6109 31.1257 31.625 28.6775 31.625 26.1248C31.5466 24.1746 30.9546 22.2797 29.909 20.6317L22 8.04083Z" fill="white"/>
</svg>
