<svg xmlns="http://www.w3.org/2000/svg" viewBox="0 0 316.14 306.61"><defs><style>.cls-1{fill:none;}.cls-2{fill:#b3b3b3;}.cls-3{fill:gray;}.cls-4{fill:#4d4d4d;}.cls-5{fill:#78b2c7;}</style></defs><g id="Capa_2" data-name="Capa 2"><g id="Capa_1-2" data-name="Capa 1"><polygon class="cls-1" points="164.31 151.12 208.34 126.64 209.16 76.27 165.94 50.37 121.91 74.85 121.09 125.23 164.31 151.12"/><polygon class="cls-2" points="121.09 125.23 77.06 149.71 163.49 201.5 164.31 151.12 121.09 125.23"/><polygon class="cls-2" points="121.91 74.85 78.69 48.96 77.06 149.71 121.09 125.23 121.91 74.85"/><polygon class="cls-3" points="209.16 76.27 253.19 51.79 166.76 0 123.81 24.17 209.16 76.27"/><polygon class="cls-4" points="164.31 151.12 163.49 201.5 251.56 152.54 208.34 126.64 164.31 151.12"/><polygon class="cls-4" points="251.56 152.54 253.19 51.79 209.16 76.27 208.34 126.64 251.56 152.54"/><path class="cls-5" d="M158.88,54.23,130.15,69.76a4.82,4.82,0,0,1-2.13.64,4.3,4.3,0,0,1-2.07-.53l-10.1-5.18a21.47,21.47,0,0,1-5.14-3.4,5.53,5.53,0,0,1-1.82-3.12,4.4,4.4,0,0,1,.76-3,18.12,18.12,0,0,1,2.49-3l6-6.23c.52-.47.73-.87.64-1.2s-.49-.68-1.17-1.07a3.42,3.42,0,0,0-1.7-.53,3.83,3.83,0,0,0-1.73.55L100,51.46a5,5,0,0,1-2.36.68,5.07,5.07,0,0,1-2.41-.66l-8.13-4.23c-.9-.46-1.36-.91-1.39-1.33s.38-.87,1.23-1.34l19.84-11a23.92,23.92,0,0,1,11.68-3.2,20.54,20.54,0,0,1,11,3.21l5.77,3.59c3,1.86,4.34,3.76,4.1,5.71s-1.45,4-3.64,6.15l-6,6.1c-.46.43-.72.76-.75,1s.27.52.89.87l1.22.68L148.76,48a4.64,4.64,0,0,1,2.19-.65,3.85,3.85,0,0,1,2,.65l6.23,3.88c.66.41,1,.8.91,1.17S159.65,53.81,158.88,54.23Z"/><path d="M0,281.93a24.44,24.44,0,0,1,1.92-9.7,24.17,24.17,0,0,1,5.33-7.84,24.53,24.53,0,0,1,8.16-5.25,28.15,28.15,0,0,1,10.44-1.89,28.27,28.27,0,0,1,10.42,1.89,24.79,24.79,0,0,1,8.22,5.25,23.94,23.94,0,0,1,5.36,7.84,25.46,25.46,0,0,1,0,19.4,24.09,24.09,0,0,1-5.36,7.85,24.77,24.77,0,0,1-8.22,5.24,28.06,28.06,0,0,1-10.42,1.89,28,28,0,0,1-10.44-1.89A24.18,24.18,0,0,1,0,281.93Zm12.71,0a12.51,12.51,0,0,0,1,5.15,13.16,13.16,0,0,0,2.86,4.09,12.75,12.75,0,0,0,4.18,2.7,13.79,13.79,0,0,0,10.11,0,13.2,13.2,0,0,0,4.21-2.7A12.92,12.92,0,0,0,38,287.08a13.15,13.15,0,0,0,0-10.3,12.92,12.92,0,0,0-2.89-4.09A13.59,13.59,0,0,0,20.8,270a12.88,12.88,0,0,0-4.18,2.69,13.16,13.16,0,0,0-2.86,4.09A12.55,12.55,0,0,0,12.71,281.93Z"/><path d="M76.69,280.38,62.12,258.56h15l6.32,12.09,7.81-12.09h15L90.83,280.38l17.42,24.93H93.43l-9.36-15.26-11,15.26H58.4Z"/><path d="M130.63,282.86l-17-24.3h14.51l8.68,12.77,8.62-12.77H159.9l-17.12,24.3v22.45H130.63Z"/><path d="M189.91,279.14H214a66.14,66.14,0,0,1-.31,6.76,23.6,23.6,0,0,1-1.24,5.64,22.49,22.49,0,0,1-3.53,6.48,20.78,20.78,0,0,1-5.24,4.71,24.75,24.75,0,0,1-6.6,2.88,28,28,0,0,1-7.57,1,26.58,26.58,0,0,1-9.95-1.8,22.45,22.45,0,0,1-7.72-5.05,22.91,22.91,0,0,1-5-7.82,29.13,29.13,0,0,1,0-20.08,22,22,0,0,1,5-7.79,23,23,0,0,1,7.84-5,27.83,27.83,0,0,1,10.24-1.8,25.35,25.35,0,0,1,12.83,3.17,21.84,21.84,0,0,1,8.74,9.79L200,275a11.68,11.68,0,0,0-4.19-5.52,10.45,10.45,0,0,0-5.85-1.67,11.81,11.81,0,0,0-5,1,10.84,10.84,0,0,0-3.81,2.91,14.06,14.06,0,0,0-2.48,4.56,18.54,18.54,0,0,0-.9,5.95,18.74,18.74,0,0,0,.78,5.52,12.43,12.43,0,0,0,2.32,4.4A10.52,10.52,0,0,0,184.7,295a12.83,12.83,0,0,0,5.33,1,14.71,14.71,0,0,0,3.47-.41,9.16,9.16,0,0,0,3-1.3,7.4,7.4,0,0,0,2.2-2.32,9.34,9.34,0,0,0,1.18-3.48h-10Z"/><path d="M254.51,268.85H240.06v7.81H253.7V287H240.06V295h14.45v10.3h-26.6V258.56h26.6Z"/><path d="M269.45,305.31V258.56H281.6l22.45,28.58V258.56h12.09v46.75H304.05L281.6,276.72v28.59Z"/></g></g></svg>