<svg width="34" height="34" viewBox="0 0 34 34" fill="none" xmlns="http://www.w3.org/2000/svg">
<path d="M12.256 17.392C12.4706 18.3215 11.4509 19.028 10.6577 18.5321L7.95259 16.8417L4.57471 22.2473C3.69256 23.6588 4.71217 25.5 6.37578 25.5H9.8281C10.2682 25.5 10.625 25.8568 10.625 26.2969V28.9532C10.625 29.3932 10.2682 29.75 9.8281 29.75H6.38262C1.37997 29.75 -1.6726 24.2351 0.976615 19.9963L4.35151 14.5916L1.64712 12.9017C0.844866 12.4005 1.05172 11.1777 1.97112 10.9654L9.29154 9.27539C9.86337 9.14338 10.4338 9.49991 10.5658 10.0716L12.256 17.392ZM18.801 5.24533L21.5429 9.63319L18.8375 11.3237C18.0372 11.8236 18.2398 13.0471 19.1615 13.26L26.4819 14.95C27.0578 15.0828 27.6251 14.7217 27.7562 14.1538L29.4462 6.83337C29.6585 5.91404 28.65 5.19187 27.848 5.69331L25.1461 7.38162L22.406 2.99336C19.9143 -0.993204 14.0913 -1.00237 11.594 2.99336L10.4011 4.9036C10.168 5.27681 10.2816 5.76828 10.6548 6.0015L12.9072 7.40898C13.2804 7.6422 13.7721 7.52871 14.0053 7.15551L15.198 5.24679C16.0422 3.89602 17.9853 3.94018 18.801 5.24533ZM33.023 19.9963L31.1958 17.0701C30.9627 16.6967 30.4709 16.5831 30.0976 16.8164L27.849 18.2214C27.4758 18.4547 27.3623 18.9463 27.5955 19.3195L29.4259 22.2488C30.3063 23.6574 29.2893 25.5001 27.6239 25.5001H21.25V22.3139C21.25 21.37 20.105 20.8939 19.4362 21.5626L14.1237 26.8738C13.7088 27.2888 13.7088 27.9615 14.1237 28.3764L19.4362 33.6882C20.1004 34.3525 21.25 33.8871 21.25 32.9368V29.75H27.617C32.6157 29.75 35.6744 24.2385 33.023 19.9963Z" fill="white"/>
</svg>
