<svg width="31" height="25" viewBox="0 0 31 25" fill="none" xmlns="http://www.w3.org/2000/svg">
<path d="M2.8309 6.34661C5.83954 3.81287 8.21615 1.80953 14.6657 5.38379C17.7639 7.09998 20.2628 7.74861 22.3415 7.74524C25.9839 7.74524 28.345 5.75878 30.3857 4.04091C30.736 3.74202 30.9539 3.32108 30.9931 2.86733C31.0323 2.41357 30.8898 1.96267 30.5959 1.61021C30.4524 1.43725 30.2751 1.29426 30.0744 1.18969C29.8737 1.08513 29.6536 1.02111 29.4272 1.00142C29.2008 0.981735 28.9727 1.00678 28.7563 1.07508C28.54 1.14338 28.3398 1.25355 28.1676 1.39906C25.1607 3.93618 22.7823 5.93952 16.3328 2.36188C7.81144 -2.35594 3.81943 1.00549 0.612732 3.70815C0.262701 4.00727 0.0451842 4.42832 0.00628445 4.88207C-0.0326153 5.33582 0.11016 5.78659 0.404349 6.13885C0.547845 6.31151 0.725196 6.45418 0.925905 6.55842C1.12662 6.66266 1.3466 6.72635 1.57286 6.74572C1.79911 6.76509 2.02702 6.73975 2.24311 6.6712C2.4592 6.60265 2.65907 6.49227 2.8309 6.34661ZM28.1676 10.0256C25.1607 12.5593 22.7823 14.5661 16.3328 10.9884C7.81144 6.26722 3.81943 9.63034 0.612732 12.3313C0.262701 12.6304 0.0451842 13.0515 0.00628445 13.5052C-0.0326153 13.959 0.11016 14.4098 0.404349 14.762C0.547597 14.9349 0.724758 15.0779 0.925343 15.1824C1.12593 15.287 1.34586 15.351 1.57212 15.3707C1.79838 15.3903 2.02636 15.3653 2.24258 15.297C2.4588 15.2288 2.65885 15.1186 2.8309 14.9731C5.83954 12.4377 8.21615 10.4344 14.6657 14.007C17.7639 15.7265 20.2628 16.3718 22.3415 16.3718C25.9839 16.3718 28.345 14.3853 30.3857 12.6641C30.7363 12.3657 30.9544 11.945 30.9936 11.4914C31.0329 11.0378 30.8902 10.5871 30.5959 10.2351C30.4525 10.062 30.2751 9.91899 30.0743 9.81444C29.8735 9.7099 29.6534 9.64596 29.4269 9.62643C29.2004 9.60689 28.9723 9.63216 28.756 9.70073C28.5396 9.7693 28.3396 9.87977 28.1676 10.0256ZM28.1676 18.6504C25.1607 21.1876 22.7823 23.1909 16.3328 19.6166C7.81144 14.8954 3.81943 18.2569 0.612732 20.9595C0.262701 21.2587 0.0451842 21.6797 0.00628445 22.1335C-0.0326153 22.5872 0.11016 23.038 0.404349 23.3902C0.547704 23.5631 0.724998 23.7059 0.925713 23.8103C1.12643 23.9147 1.34647 23.9785 1.57279 23.9978C1.79911 24.0172 2.02709 23.9918 2.24321 23.9231C2.45932 23.8544 2.65917 23.7439 2.8309 23.598C5.83954 21.0643 8.21615 19.0626 14.6657 22.6352C17.7639 24.3514 20.2628 25 22.3415 25C25.9839 25 28.345 23.0102 30.3857 21.2923C30.736 20.9934 30.9539 20.5725 30.9931 20.1187C31.0323 19.665 30.8898 19.2141 30.5959 18.8616C30.4523 18.6888 30.2749 18.546 30.0742 18.4416C29.8735 18.3372 29.6535 18.2732 29.4271 18.2535C29.2008 18.2339 28.9727 18.2588 28.7564 18.327C28.5401 18.3952 28.3399 18.5052 28.1676 18.6504Z" fill="white"/>
</svg>
